%TF.GenerationSoftware,KiCad,Pcbnew,8.0.7*%
%TF.CreationDate,2025-01-23T10:00:33+05:30*%
%TF.ProjectId,LED_Torch,4c45445f-546f-4726-9368-2e6b69636164,1*%
%TF.SameCoordinates,Original*%
%TF.FileFunction,Legend,Top*%
%TF.FilePolarity,Positive*%
%FSLAX46Y46*%
G04 Gerber Fmt 4.6, Leading zero omitted, Abs format (unit mm)*
G04 Created by KiCad (PCBNEW 8.0.7) date 2025-01-23 10:00:33*
%MOMM*%
%LPD*%
G01*
G04 APERTURE LIST*
%ADD10C,0.150000*%
%ADD11C,0.120000*%
G04 APERTURE END LIST*
D10*
X152464285Y-90501009D02*
X152607142Y-90548628D01*
X152607142Y-90548628D02*
X152654761Y-90596247D01*
X152654761Y-90596247D02*
X152702380Y-90691485D01*
X152702380Y-90691485D02*
X152702380Y-90834342D01*
X152702380Y-90834342D02*
X152654761Y-90929580D01*
X152654761Y-90929580D02*
X152607142Y-90977200D01*
X152607142Y-90977200D02*
X152511904Y-91024819D01*
X152511904Y-91024819D02*
X152130952Y-91024819D01*
X152130952Y-91024819D02*
X152130952Y-90024819D01*
X152130952Y-90024819D02*
X152464285Y-90024819D01*
X152464285Y-90024819D02*
X152559523Y-90072438D01*
X152559523Y-90072438D02*
X152607142Y-90120057D01*
X152607142Y-90120057D02*
X152654761Y-90215295D01*
X152654761Y-90215295D02*
X152654761Y-90310533D01*
X152654761Y-90310533D02*
X152607142Y-90405771D01*
X152607142Y-90405771D02*
X152559523Y-90453390D01*
X152559523Y-90453390D02*
X152464285Y-90501009D01*
X152464285Y-90501009D02*
X152130952Y-90501009D01*
X152988095Y-90024819D02*
X153559523Y-90024819D01*
X153273809Y-91024819D02*
X153273809Y-90024819D01*
X154416666Y-91024819D02*
X153845238Y-91024819D01*
X154130952Y-91024819D02*
X154130952Y-90024819D01*
X154130952Y-90024819D02*
X154035714Y-90167676D01*
X154035714Y-90167676D02*
X153940476Y-90262914D01*
X153940476Y-90262914D02*
X153845238Y-90310533D01*
X119454819Y-99666666D02*
X118978628Y-99999999D01*
X119454819Y-100238094D02*
X118454819Y-100238094D01*
X118454819Y-100238094D02*
X118454819Y-99857142D01*
X118454819Y-99857142D02*
X118502438Y-99761904D01*
X118502438Y-99761904D02*
X118550057Y-99714285D01*
X118550057Y-99714285D02*
X118645295Y-99666666D01*
X118645295Y-99666666D02*
X118788152Y-99666666D01*
X118788152Y-99666666D02*
X118883390Y-99714285D01*
X118883390Y-99714285D02*
X118931009Y-99761904D01*
X118931009Y-99761904D02*
X118978628Y-99857142D01*
X118978628Y-99857142D02*
X118978628Y-100238094D01*
X119454819Y-98714285D02*
X119454819Y-99285713D01*
X119454819Y-98999999D02*
X118454819Y-98999999D01*
X118454819Y-98999999D02*
X118597676Y-99095237D01*
X118597676Y-99095237D02*
X118692914Y-99190475D01*
X118692914Y-99190475D02*
X118740533Y-99285713D01*
X109639819Y-98923094D02*
X108639819Y-98923094D01*
X108639819Y-98923094D02*
X108639819Y-98684999D01*
X108639819Y-98684999D02*
X108687438Y-98542142D01*
X108687438Y-98542142D02*
X108782676Y-98446904D01*
X108782676Y-98446904D02*
X108877914Y-98399285D01*
X108877914Y-98399285D02*
X109068390Y-98351666D01*
X109068390Y-98351666D02*
X109211247Y-98351666D01*
X109211247Y-98351666D02*
X109401723Y-98399285D01*
X109401723Y-98399285D02*
X109496961Y-98446904D01*
X109496961Y-98446904D02*
X109592200Y-98542142D01*
X109592200Y-98542142D02*
X109639819Y-98684999D01*
X109639819Y-98684999D02*
X109639819Y-98923094D01*
X109639819Y-97399285D02*
X109639819Y-97970713D01*
X109639819Y-97684999D02*
X108639819Y-97684999D01*
X108639819Y-97684999D02*
X108782676Y-97780237D01*
X108782676Y-97780237D02*
X108877914Y-97875475D01*
X108877914Y-97875475D02*
X108925533Y-97970713D01*
X129666667Y-94297200D02*
X129809524Y-94344819D01*
X129809524Y-94344819D02*
X130047619Y-94344819D01*
X130047619Y-94344819D02*
X130142857Y-94297200D01*
X130142857Y-94297200D02*
X130190476Y-94249580D01*
X130190476Y-94249580D02*
X130238095Y-94154342D01*
X130238095Y-94154342D02*
X130238095Y-94059104D01*
X130238095Y-94059104D02*
X130190476Y-93963866D01*
X130190476Y-93963866D02*
X130142857Y-93916247D01*
X130142857Y-93916247D02*
X130047619Y-93868628D01*
X130047619Y-93868628D02*
X129857143Y-93821009D01*
X129857143Y-93821009D02*
X129761905Y-93773390D01*
X129761905Y-93773390D02*
X129714286Y-93725771D01*
X129714286Y-93725771D02*
X129666667Y-93630533D01*
X129666667Y-93630533D02*
X129666667Y-93535295D01*
X129666667Y-93535295D02*
X129714286Y-93440057D01*
X129714286Y-93440057D02*
X129761905Y-93392438D01*
X129761905Y-93392438D02*
X129857143Y-93344819D01*
X129857143Y-93344819D02*
X130095238Y-93344819D01*
X130095238Y-93344819D02*
X130238095Y-93392438D01*
X130571429Y-93344819D02*
X130809524Y-94344819D01*
X130809524Y-94344819D02*
X131000000Y-93630533D01*
X131000000Y-93630533D02*
X131190476Y-94344819D01*
X131190476Y-94344819D02*
X131428572Y-93344819D01*
X132333333Y-94344819D02*
X131761905Y-94344819D01*
X132047619Y-94344819D02*
X132047619Y-93344819D01*
X132047619Y-93344819D02*
X131952381Y-93487676D01*
X131952381Y-93487676D02*
X131857143Y-93582914D01*
X131857143Y-93582914D02*
X131761905Y-93630533D01*
D11*
%TO.C,BT1*%
X138940000Y-94580000D02*
X142558000Y-94580000D01*
X138940000Y-96290000D02*
X138940000Y-94580000D01*
X138940000Y-100090000D02*
X138940000Y-101800000D01*
X142558000Y-101800000D02*
X138940000Y-101800000D01*
X145402700Y-90080000D02*
X149390000Y-90080000D01*
X151590000Y-92280000D02*
X149390000Y-90080000D01*
X151590000Y-92280000D02*
X154910000Y-92280000D01*
X154910000Y-92280000D02*
X157110000Y-90080000D01*
X157110000Y-90080000D02*
X161097300Y-90080000D01*
X161097300Y-106300000D02*
X145402700Y-106300000D01*
X163942000Y-94580000D02*
X167560000Y-94580000D01*
X167560000Y-96290000D02*
X167560000Y-94580000D01*
X167560000Y-100090000D02*
X167560000Y-101800000D01*
X167560000Y-101800000D02*
X163942000Y-101800000D01*
X142558000Y-94580000D02*
G75*
G02*
X145404629Y-90078211I10692020J-3610012D01*
G01*
X145404629Y-106301789D02*
G75*
G02*
X142558000Y-101800000I7845371J8111789D01*
G01*
X161095371Y-90078211D02*
G75*
G02*
X163942000Y-94580000I-7845366J-8111785D01*
G01*
X163942000Y-101800000D02*
G75*
G02*
X161095372Y-106301790I-10692020J3610010D01*
G01*
%TO.C,R1*%
X120130000Y-94920000D02*
X120460000Y-94920000D01*
X120130000Y-101460000D02*
X120130000Y-94920000D01*
X120460000Y-101460000D02*
X120130000Y-101460000D01*
X122540000Y-101460000D02*
X122870000Y-101460000D01*
X122870000Y-94920000D02*
X122540000Y-94920000D01*
X122870000Y-101460000D02*
X122870000Y-94920000D01*
%TO.C,D1*%
X106770000Y-95625000D02*
X103680000Y-95625000D01*
X105224952Y-101175000D02*
G75*
G02*
X103680170Y-95625000I48J2990000D01*
G01*
X106769830Y-95625000D02*
G75*
G02*
X105225048Y-101175000I-1544830J-2560000D01*
G01*
X107725000Y-98185000D02*
G75*
G02*
X102725000Y-98185000I-2500000J0D01*
G01*
X102725000Y-98185000D02*
G75*
G02*
X107725000Y-98185000I2500000J0D01*
G01*
%TO.C,SW1*%
X127880000Y-99340000D02*
X127880000Y-97140000D01*
X128350000Y-101310000D02*
X133550000Y-101310000D01*
X128950000Y-95070000D02*
X133350000Y-95070000D01*
X134120000Y-97140000D02*
X134120000Y-99340000D01*
X132414214Y-98190000D02*
G75*
G02*
X129585786Y-98190000I-1414214J0D01*
G01*
X129585786Y-98190000D02*
G75*
G02*
X132414214Y-98190000I1414214J0D01*
G01*
%TD*%
M02*
