%TF.GenerationSoftware,KiCad,Pcbnew,8.0.7*%
%TF.CreationDate,2025-01-23T10:00:33+05:30*%
%TF.ProjectId,LED_Torch,4c45445f-546f-4726-9368-2e6b69636164,1*%
%TF.SameCoordinates,Original*%
%TF.FileFunction,Legend,Bot*%
%TF.FilePolarity,Positive*%
%FSLAX46Y46*%
G04 Gerber Fmt 4.6, Leading zero omitted, Abs format (unit mm)*
G04 Created by KiCad (PCBNEW 8.0.7) date 2025-01-23 10:00:33*
%MOMM*%
%LPD*%
G01*
G04 APERTURE LIST*
%ADD10C,0.010000*%
G04 APERTURE END LIST*
D10*
%TO.C,REF\u002A\u002A*%
X150105406Y-99574949D02*
X150131127Y-99590647D01*
X150157778Y-99612227D01*
X150157778Y-100259684D01*
X150131127Y-100281264D01*
X150099767Y-100298739D01*
X150063966Y-100299575D01*
X150032528Y-100279082D01*
X150028652Y-100274416D01*
X150023186Y-100264949D01*
X150018979Y-100251267D01*
X150015867Y-100230748D01*
X150013687Y-100200768D01*
X150012276Y-100158704D01*
X150011471Y-100101932D01*
X150011107Y-100027830D01*
X150011022Y-99933773D01*
X150011022Y-99612227D01*
X150037673Y-99590647D01*
X150061386Y-99575877D01*
X150084400Y-99569067D01*
X150105406Y-99574949D01*
G36*
X150105406Y-99574949D02*
G01*
X150131127Y-99590647D01*
X150157778Y-99612227D01*
X150157778Y-100259684D01*
X150131127Y-100281264D01*
X150099767Y-100298739D01*
X150063966Y-100299575D01*
X150032528Y-100279082D01*
X150028652Y-100274416D01*
X150023186Y-100264949D01*
X150018979Y-100251267D01*
X150015867Y-100230748D01*
X150013687Y-100200768D01*
X150012276Y-100158704D01*
X150011471Y-100101932D01*
X150011107Y-100027830D01*
X150011022Y-99933773D01*
X150011022Y-99612227D01*
X150037673Y-99590647D01*
X150061386Y-99575877D01*
X150084400Y-99569067D01*
X150105406Y-99574949D01*
G37*
X157236137Y-99573463D02*
X157270291Y-99596776D01*
X157298000Y-99624485D01*
X157298000Y-99937537D01*
X157297959Y-100021567D01*
X157297701Y-100095789D01*
X157297030Y-100152541D01*
X157295752Y-100194512D01*
X157293673Y-100224389D01*
X157290599Y-100244861D01*
X157286334Y-100258614D01*
X157280684Y-100268337D01*
X157273455Y-100276717D01*
X157241991Y-100298181D01*
X157206826Y-100299947D01*
X157173822Y-100280267D01*
X157168516Y-100274398D01*
X157163066Y-100265314D01*
X157158900Y-100251973D01*
X157155846Y-100231757D01*
X157153732Y-100202049D01*
X157152386Y-100160232D01*
X157151638Y-100103689D01*
X157151314Y-100029802D01*
X157151245Y-99935956D01*
X157151284Y-99860294D01*
X157151539Y-99782385D01*
X157152183Y-99722375D01*
X157153387Y-99677648D01*
X157155324Y-99645585D01*
X157158164Y-99623571D01*
X157162079Y-99608987D01*
X157167242Y-99599218D01*
X157173822Y-99591645D01*
X157203006Y-99572623D01*
X157236137Y-99573463D01*
G36*
X157236137Y-99573463D02*
G01*
X157270291Y-99596776D01*
X157298000Y-99624485D01*
X157298000Y-99937537D01*
X157297959Y-100021567D01*
X157297701Y-100095789D01*
X157297030Y-100152541D01*
X157295752Y-100194512D01*
X157293673Y-100224389D01*
X157290599Y-100244861D01*
X157286334Y-100258614D01*
X157280684Y-100268337D01*
X157273455Y-100276717D01*
X157241991Y-100298181D01*
X157206826Y-100299947D01*
X157173822Y-100280267D01*
X157168516Y-100274398D01*
X157163066Y-100265314D01*
X157158900Y-100251973D01*
X157155846Y-100231757D01*
X157153732Y-100202049D01*
X157152386Y-100160232D01*
X157151638Y-100103689D01*
X157151314Y-100029802D01*
X157151245Y-99935956D01*
X157151284Y-99860294D01*
X157151539Y-99782385D01*
X157152183Y-99722375D01*
X157153387Y-99677648D01*
X157155324Y-99645585D01*
X157158164Y-99623571D01*
X157162079Y-99608987D01*
X157167242Y-99599218D01*
X157173822Y-99591645D01*
X157203006Y-99572623D01*
X157236137Y-99573463D01*
G37*
X156704562Y-94332850D02*
X156787313Y-94360053D01*
X156862406Y-94405484D01*
X156934298Y-94471302D01*
X156972846Y-94515567D01*
X157012256Y-94573961D01*
X157037446Y-94634586D01*
X157050861Y-94703865D01*
X157054948Y-94788222D01*
X157054669Y-94834307D01*
X157052460Y-94875450D01*
X157046894Y-94907582D01*
X157036586Y-94938122D01*
X157020148Y-94974489D01*
X157006200Y-95001728D01*
X156947665Y-95087429D01*
X156875619Y-95156617D01*
X156791947Y-95207741D01*
X156698531Y-95239250D01*
X156665434Y-95246225D01*
X156624960Y-95253094D01*
X156591999Y-95254919D01*
X156557698Y-95251947D01*
X156513200Y-95244426D01*
X156461934Y-95232002D01*
X156371434Y-95194112D01*
X156292345Y-95139836D01*
X156226528Y-95071770D01*
X156175840Y-94992511D01*
X156142140Y-94904654D01*
X156127286Y-94810795D01*
X156133136Y-94713530D01*
X156159399Y-94617220D01*
X156204418Y-94528494D01*
X156265373Y-94453419D01*
X156340184Y-94393641D01*
X156426768Y-94350809D01*
X156523043Y-94326571D01*
X156626928Y-94322576D01*
X156704562Y-94332850D01*
G36*
X156704562Y-94332850D02*
G01*
X156787313Y-94360053D01*
X156862406Y-94405484D01*
X156934298Y-94471302D01*
X156972846Y-94515567D01*
X157012256Y-94573961D01*
X157037446Y-94634586D01*
X157050861Y-94703865D01*
X157054948Y-94788222D01*
X157054669Y-94834307D01*
X157052460Y-94875450D01*
X157046894Y-94907582D01*
X157036586Y-94938122D01*
X157020148Y-94974489D01*
X157006200Y-95001728D01*
X156947665Y-95087429D01*
X156875619Y-95156617D01*
X156791947Y-95207741D01*
X156698531Y-95239250D01*
X156665434Y-95246225D01*
X156624960Y-95253094D01*
X156591999Y-95254919D01*
X156557698Y-95251947D01*
X156513200Y-95244426D01*
X156461934Y-95232002D01*
X156371434Y-95194112D01*
X156292345Y-95139836D01*
X156226528Y-95071770D01*
X156175840Y-94992511D01*
X156142140Y-94904654D01*
X156127286Y-94810795D01*
X156133136Y-94713530D01*
X156159399Y-94617220D01*
X156204418Y-94528494D01*
X156265373Y-94453419D01*
X156340184Y-94393641D01*
X156426768Y-94350809D01*
X156523043Y-94326571D01*
X156626928Y-94322576D01*
X156704562Y-94332850D01*
G37*
X149405767Y-99569068D02*
X149499890Y-99569158D01*
X149574405Y-99569498D01*
X149631811Y-99570239D01*
X149674611Y-99571535D01*
X149705304Y-99573537D01*
X149726391Y-99576396D01*
X149740373Y-99580266D01*
X149749750Y-99585298D01*
X149757022Y-99591645D01*
X149775828Y-99624362D01*
X149777275Y-99661939D01*
X149760917Y-99695178D01*
X149759557Y-99696631D01*
X149748354Y-99704992D01*
X149731252Y-99710547D01*
X149704082Y-99713840D01*
X149662678Y-99715418D01*
X149602873Y-99715822D01*
X149463511Y-99715822D01*
X149463511Y-99979589D01*
X149463436Y-100055417D01*
X149463028Y-100122083D01*
X149462046Y-100171867D01*
X149460250Y-100207784D01*
X149457399Y-100232850D01*
X149453253Y-100250081D01*
X149447571Y-100262492D01*
X149440114Y-100273100D01*
X149437824Y-100275906D01*
X149406646Y-100298548D01*
X149372266Y-100300112D01*
X149339334Y-100280267D01*
X149332355Y-100272191D01*
X149326883Y-100261593D01*
X149322863Y-100245749D01*
X149320072Y-100221773D01*
X149318288Y-100186774D01*
X149317289Y-100137864D01*
X149316852Y-100072154D01*
X149316756Y-99986756D01*
X149316756Y-99715822D01*
X149170820Y-99715822D01*
X149159720Y-99715821D01*
X149103202Y-99715596D01*
X149064358Y-99714457D01*
X149038965Y-99711657D01*
X149022804Y-99706450D01*
X149011652Y-99698089D01*
X149001289Y-99685826D01*
X148985441Y-99655138D01*
X148988543Y-99621358D01*
X149014187Y-99588822D01*
X149019129Y-99585105D01*
X149029338Y-99580269D01*
X149044764Y-99576506D01*
X149067886Y-99573683D01*
X149101183Y-99571670D01*
X149147137Y-99570333D01*
X149208228Y-99569542D01*
X149286935Y-99569163D01*
X149385740Y-99569067D01*
X149405767Y-99569068D01*
G36*
X149405767Y-99569068D02*
G01*
X149499890Y-99569158D01*
X149574405Y-99569498D01*
X149631811Y-99570239D01*
X149674611Y-99571535D01*
X149705304Y-99573537D01*
X149726391Y-99576396D01*
X149740373Y-99580266D01*
X149749750Y-99585298D01*
X149757022Y-99591645D01*
X149775828Y-99624362D01*
X149777275Y-99661939D01*
X149760917Y-99695178D01*
X149759557Y-99696631D01*
X149748354Y-99704992D01*
X149731252Y-99710547D01*
X149704082Y-99713840D01*
X149662678Y-99715418D01*
X149602873Y-99715822D01*
X149463511Y-99715822D01*
X149463511Y-99979589D01*
X149463436Y-100055417D01*
X149463028Y-100122083D01*
X149462046Y-100171867D01*
X149460250Y-100207784D01*
X149457399Y-100232850D01*
X149453253Y-100250081D01*
X149447571Y-100262492D01*
X149440114Y-100273100D01*
X149437824Y-100275906D01*
X149406646Y-100298548D01*
X149372266Y-100300112D01*
X149339334Y-100280267D01*
X149332355Y-100272191D01*
X149326883Y-100261593D01*
X149322863Y-100245749D01*
X149320072Y-100221773D01*
X149318288Y-100186774D01*
X149317289Y-100137864D01*
X149316852Y-100072154D01*
X149316756Y-99986756D01*
X149316756Y-99715822D01*
X149170820Y-99715822D01*
X149159720Y-99715821D01*
X149103202Y-99715596D01*
X149064358Y-99714457D01*
X149038965Y-99711657D01*
X149022804Y-99706450D01*
X149011652Y-99698089D01*
X149001289Y-99685826D01*
X148985441Y-99655138D01*
X148988543Y-99621358D01*
X149014187Y-99588822D01*
X149019129Y-99585105D01*
X149029338Y-99580269D01*
X149044764Y-99576506D01*
X149067886Y-99573683D01*
X149101183Y-99571670D01*
X149147137Y-99570333D01*
X149208228Y-99569542D01*
X149286935Y-99569163D01*
X149385740Y-99569067D01*
X149405767Y-99569068D01*
G37*
X148729734Y-99591645D02*
X148735366Y-99597835D01*
X148740456Y-99606041D01*
X148744543Y-99617817D01*
X148747721Y-99635276D01*
X148750087Y-99660530D01*
X148751738Y-99695690D01*
X148752769Y-99742869D01*
X148753277Y-99804177D01*
X148753359Y-99881727D01*
X148753109Y-99977631D01*
X148752625Y-100094000D01*
X148752557Y-100108175D01*
X148751971Y-100169937D01*
X148750648Y-100213620D01*
X148748103Y-100243001D01*
X148743848Y-100261855D01*
X148737396Y-100273959D01*
X148728262Y-100283089D01*
X148694804Y-100300506D01*
X148659856Y-100297604D01*
X148628953Y-100273100D01*
X148619944Y-100259897D01*
X148612492Y-100241361D01*
X148608124Y-100215333D01*
X148606069Y-100176787D01*
X148605556Y-100120700D01*
X148605556Y-99998045D01*
X148108845Y-99998045D01*
X148108845Y-100132871D01*
X148108772Y-100168662D01*
X148108009Y-100214992D01*
X148105833Y-100245526D01*
X148101536Y-100264557D01*
X148094412Y-100276374D01*
X148083755Y-100285271D01*
X148051504Y-100300341D01*
X148016217Y-100297673D01*
X147985486Y-100273100D01*
X147980831Y-100266845D01*
X147974895Y-100256321D01*
X147970364Y-100242391D01*
X147967048Y-100222317D01*
X147964759Y-100193360D01*
X147963308Y-100152780D01*
X147962505Y-100097840D01*
X147962162Y-100025799D01*
X147962089Y-99933920D01*
X147962089Y-99624485D01*
X147989798Y-99596776D01*
X148021177Y-99574533D01*
X148054406Y-99571844D01*
X148086267Y-99591645D01*
X148094553Y-99601415D01*
X148101965Y-99617307D01*
X148106302Y-99641275D01*
X148108338Y-99678148D01*
X148108845Y-99732756D01*
X148108845Y-99851289D01*
X148605556Y-99851289D01*
X148605556Y-99735776D01*
X148605994Y-99684078D01*
X148607958Y-99649554D01*
X148612474Y-99626978D01*
X148620567Y-99611126D01*
X148633265Y-99596776D01*
X148664643Y-99574533D01*
X148697872Y-99571844D01*
X148729734Y-99591645D01*
G36*
X148729734Y-99591645D02*
G01*
X148735366Y-99597835D01*
X148740456Y-99606041D01*
X148744543Y-99617817D01*
X148747721Y-99635276D01*
X148750087Y-99660530D01*
X148751738Y-99695690D01*
X148752769Y-99742869D01*
X148753277Y-99804177D01*
X148753359Y-99881727D01*
X148753109Y-99977631D01*
X148752625Y-100094000D01*
X148752557Y-100108175D01*
X148751971Y-100169937D01*
X148750648Y-100213620D01*
X148748103Y-100243001D01*
X148743848Y-100261855D01*
X148737396Y-100273959D01*
X148728262Y-100283089D01*
X148694804Y-100300506D01*
X148659856Y-100297604D01*
X148628953Y-100273100D01*
X148619944Y-100259897D01*
X148612492Y-100241361D01*
X148608124Y-100215333D01*
X148606069Y-100176787D01*
X148605556Y-100120700D01*
X148605556Y-99998045D01*
X148108845Y-99998045D01*
X148108845Y-100132871D01*
X148108772Y-100168662D01*
X148108009Y-100214992D01*
X148105833Y-100245526D01*
X148101536Y-100264557D01*
X148094412Y-100276374D01*
X148083755Y-100285271D01*
X148051504Y-100300341D01*
X148016217Y-100297673D01*
X147985486Y-100273100D01*
X147980831Y-100266845D01*
X147974895Y-100256321D01*
X147970364Y-100242391D01*
X147967048Y-100222317D01*
X147964759Y-100193360D01*
X147963308Y-100152780D01*
X147962505Y-100097840D01*
X147962162Y-100025799D01*
X147962089Y-99933920D01*
X147962089Y-99624485D01*
X147989798Y-99596776D01*
X148021177Y-99574533D01*
X148054406Y-99571844D01*
X148086267Y-99591645D01*
X148094553Y-99601415D01*
X148101965Y-99617307D01*
X148106302Y-99641275D01*
X148108338Y-99678148D01*
X148108845Y-99732756D01*
X148108845Y-99851289D01*
X148605556Y-99851289D01*
X148605556Y-99735776D01*
X148605994Y-99684078D01*
X148607958Y-99649554D01*
X148612474Y-99626978D01*
X148620567Y-99611126D01*
X148633265Y-99596776D01*
X148664643Y-99574533D01*
X148697872Y-99571844D01*
X148729734Y-99591645D01*
G37*
X153435133Y-100180396D02*
X153433163Y-100213175D01*
X153430235Y-100236095D01*
X153426158Y-100251897D01*
X153420743Y-100263319D01*
X153413803Y-100273100D01*
X153390406Y-100302845D01*
X153224714Y-100302251D01*
X153189918Y-100301953D01*
X153091435Y-100298522D01*
X153010473Y-100290839D01*
X152943379Y-100278282D01*
X152886496Y-100260227D01*
X152836169Y-100236052D01*
X152832810Y-100234135D01*
X152774998Y-100197417D01*
X152732644Y-100160451D01*
X152699828Y-100116966D01*
X152670628Y-100060689D01*
X152666346Y-100051073D01*
X152643769Y-99987887D01*
X152638034Y-99942333D01*
X152787279Y-99942333D01*
X152792892Y-99967061D01*
X152798618Y-99982939D01*
X152831548Y-100042847D01*
X152878886Y-100088600D01*
X152942652Y-100121736D01*
X153024861Y-100143790D01*
X153027655Y-100144292D01*
X153073940Y-100150255D01*
X153130336Y-100154483D01*
X153185274Y-100156089D01*
X153279156Y-100156089D01*
X153279156Y-99715822D01*
X153191667Y-99716270D01*
X153124747Y-99718746D01*
X153032349Y-99729998D01*
X152953034Y-99749537D01*
X152891060Y-99776511D01*
X152860120Y-99797240D01*
X152832000Y-99827006D01*
X152808660Y-99869434D01*
X152801533Y-99885400D01*
X152789709Y-99917902D01*
X152787279Y-99942333D01*
X152638034Y-99942333D01*
X152636797Y-99932509D01*
X152645399Y-99877483D01*
X152669541Y-99815351D01*
X152670337Y-99813658D01*
X152710788Y-99744236D01*
X152761473Y-99687638D01*
X152824198Y-99643070D01*
X152900774Y-99609741D01*
X152993009Y-99586861D01*
X153102712Y-99573636D01*
X153231691Y-99569275D01*
X153235263Y-99569270D01*
X153295283Y-99569410D01*
X153337214Y-99570446D01*
X153365328Y-99573040D01*
X153383897Y-99577853D01*
X153397194Y-99585544D01*
X153409491Y-99596776D01*
X153437200Y-99624485D01*
X153437200Y-99933920D01*
X153437175Y-99995526D01*
X153436950Y-100074311D01*
X153436332Y-100135021D01*
X153435775Y-100156089D01*
X153435133Y-100180396D01*
G36*
X153435133Y-100180396D02*
G01*
X153433163Y-100213175D01*
X153430235Y-100236095D01*
X153426158Y-100251897D01*
X153420743Y-100263319D01*
X153413803Y-100273100D01*
X153390406Y-100302845D01*
X153224714Y-100302251D01*
X153189918Y-100301953D01*
X153091435Y-100298522D01*
X153010473Y-100290839D01*
X152943379Y-100278282D01*
X152886496Y-100260227D01*
X152836169Y-100236052D01*
X152832810Y-100234135D01*
X152774998Y-100197417D01*
X152732644Y-100160451D01*
X152699828Y-100116966D01*
X152670628Y-100060689D01*
X152666346Y-100051073D01*
X152643769Y-99987887D01*
X152638034Y-99942333D01*
X152787279Y-99942333D01*
X152792892Y-99967061D01*
X152798618Y-99982939D01*
X152831548Y-100042847D01*
X152878886Y-100088600D01*
X152942652Y-100121736D01*
X153024861Y-100143790D01*
X153027655Y-100144292D01*
X153073940Y-100150255D01*
X153130336Y-100154483D01*
X153185274Y-100156089D01*
X153279156Y-100156089D01*
X153279156Y-99715822D01*
X153191667Y-99716270D01*
X153124747Y-99718746D01*
X153032349Y-99729998D01*
X152953034Y-99749537D01*
X152891060Y-99776511D01*
X152860120Y-99797240D01*
X152832000Y-99827006D01*
X152808660Y-99869434D01*
X152801533Y-99885400D01*
X152789709Y-99917902D01*
X152787279Y-99942333D01*
X152638034Y-99942333D01*
X152636797Y-99932509D01*
X152645399Y-99877483D01*
X152669541Y-99815351D01*
X152670337Y-99813658D01*
X152710788Y-99744236D01*
X152761473Y-99687638D01*
X152824198Y-99643070D01*
X152900774Y-99609741D01*
X152993009Y-99586861D01*
X153102712Y-99573636D01*
X153231691Y-99569275D01*
X153235263Y-99569270D01*
X153295283Y-99569410D01*
X153337214Y-99570446D01*
X153365328Y-99573040D01*
X153383897Y-99577853D01*
X153397194Y-99585544D01*
X153409491Y-99596776D01*
X153437200Y-99624485D01*
X153437200Y-99933920D01*
X153437175Y-99995526D01*
X153436950Y-100074311D01*
X153436332Y-100135021D01*
X153435775Y-100156089D01*
X153435133Y-100180396D01*
G37*
X160526817Y-99754427D02*
X160526870Y-99835041D01*
X160526622Y-99935956D01*
X160526583Y-100011617D01*
X160526328Y-100089526D01*
X160525684Y-100149536D01*
X160524480Y-100194264D01*
X160522543Y-100226326D01*
X160519703Y-100248340D01*
X160515788Y-100262924D01*
X160510626Y-100272694D01*
X160504045Y-100280267D01*
X160497077Y-100286501D01*
X160484079Y-100293801D01*
X160464931Y-100298554D01*
X160435528Y-100301292D01*
X160391762Y-100302545D01*
X160329528Y-100302845D01*
X160280582Y-100302469D01*
X160173722Y-100298041D01*
X160084494Y-100287953D01*
X160009696Y-100271365D01*
X159946125Y-100247435D01*
X159890579Y-100215321D01*
X159839854Y-100174182D01*
X159833866Y-100168330D01*
X159796999Y-100119821D01*
X159765899Y-100059013D01*
X159744417Y-99994769D01*
X159739136Y-99956026D01*
X159886353Y-99956026D01*
X159904635Y-100006961D01*
X159934305Y-100052878D01*
X159981002Y-100095287D01*
X160042392Y-100125090D01*
X160121538Y-100144226D01*
X160123028Y-100144464D01*
X160171999Y-100150256D01*
X160230693Y-100154396D01*
X160286734Y-100156004D01*
X160379867Y-100156089D01*
X160379867Y-99715822D01*
X160303667Y-99715808D01*
X160300639Y-99715817D01*
X160249519Y-99717782D01*
X160189416Y-99722507D01*
X160132708Y-99729035D01*
X160082750Y-99738331D01*
X160007998Y-99764600D01*
X159950489Y-99803899D01*
X159908988Y-99856933D01*
X159887771Y-99908200D01*
X159886353Y-99956026D01*
X159739136Y-99956026D01*
X159736400Y-99935956D01*
X159737679Y-99914739D01*
X159749991Y-99857323D01*
X159772520Y-99797413D01*
X159801750Y-99743363D01*
X159834167Y-99703532D01*
X159853708Y-99686510D01*
X159908420Y-99647322D01*
X159968723Y-99617193D01*
X160037919Y-99595232D01*
X160119311Y-99580550D01*
X160216200Y-99572259D01*
X160331889Y-99569467D01*
X160371371Y-99569066D01*
X160417082Y-99568653D01*
X160452883Y-99570457D01*
X160479974Y-99576739D01*
X160499556Y-99589759D01*
X160512830Y-99611778D01*
X160520998Y-99645055D01*
X160525260Y-99691851D01*
X160525857Y-99715822D01*
X160526817Y-99754427D01*
G36*
X160526817Y-99754427D02*
G01*
X160526870Y-99835041D01*
X160526622Y-99935956D01*
X160526583Y-100011617D01*
X160526328Y-100089526D01*
X160525684Y-100149536D01*
X160524480Y-100194264D01*
X160522543Y-100226326D01*
X160519703Y-100248340D01*
X160515788Y-100262924D01*
X160510626Y-100272694D01*
X160504045Y-100280267D01*
X160497077Y-100286501D01*
X160484079Y-100293801D01*
X160464931Y-100298554D01*
X160435528Y-100301292D01*
X160391762Y-100302545D01*
X160329528Y-100302845D01*
X160280582Y-100302469D01*
X160173722Y-100298041D01*
X160084494Y-100287953D01*
X160009696Y-100271365D01*
X159946125Y-100247435D01*
X159890579Y-100215321D01*
X159839854Y-100174182D01*
X159833866Y-100168330D01*
X159796999Y-100119821D01*
X159765899Y-100059013D01*
X159744417Y-99994769D01*
X159739136Y-99956026D01*
X159886353Y-99956026D01*
X159904635Y-100006961D01*
X159934305Y-100052878D01*
X159981002Y-100095287D01*
X160042392Y-100125090D01*
X160121538Y-100144226D01*
X160123028Y-100144464D01*
X160171999Y-100150256D01*
X160230693Y-100154396D01*
X160286734Y-100156004D01*
X160379867Y-100156089D01*
X160379867Y-99715822D01*
X160303667Y-99715808D01*
X160300639Y-99715817D01*
X160249519Y-99717782D01*
X160189416Y-99722507D01*
X160132708Y-99729035D01*
X160082750Y-99738331D01*
X160007998Y-99764600D01*
X159950489Y-99803899D01*
X159908988Y-99856933D01*
X159887771Y-99908200D01*
X159886353Y-99956026D01*
X159739136Y-99956026D01*
X159736400Y-99935956D01*
X159737679Y-99914739D01*
X159749991Y-99857323D01*
X159772520Y-99797413D01*
X159801750Y-99743363D01*
X159834167Y-99703532D01*
X159853708Y-99686510D01*
X159908420Y-99647322D01*
X159968723Y-99617193D01*
X160037919Y-99595232D01*
X160119311Y-99580550D01*
X160216200Y-99572259D01*
X160331889Y-99569467D01*
X160371371Y-99569066D01*
X160417082Y-99568653D01*
X160452883Y-99570457D01*
X160479974Y-99576739D01*
X160499556Y-99589759D01*
X160512830Y-99611778D01*
X160520998Y-99645055D01*
X160525260Y-99691851D01*
X160525857Y-99715822D01*
X160526817Y-99754427D01*
G37*
X155581893Y-99567892D02*
X155593301Y-99574029D01*
X155603850Y-99584691D01*
X155615136Y-99598811D01*
X155619589Y-99604772D01*
X155625588Y-99615268D01*
X155630167Y-99629093D01*
X155633519Y-99648998D01*
X155635833Y-99677732D01*
X155637301Y-99718045D01*
X155638113Y-99772687D01*
X155638460Y-99844407D01*
X155638534Y-99935956D01*
X155638511Y-99994486D01*
X155638292Y-100073573D01*
X155637683Y-100134516D01*
X155636492Y-100180062D01*
X155634529Y-100212963D01*
X155631603Y-100235968D01*
X155627523Y-100251826D01*
X155622097Y-100263286D01*
X155615136Y-100273100D01*
X155584708Y-100297493D01*
X155549765Y-100300372D01*
X155512784Y-100281282D01*
X155508600Y-100277807D01*
X155500424Y-100269279D01*
X155494364Y-100257728D01*
X155489981Y-100239896D01*
X155486839Y-100212524D01*
X155484502Y-100172354D01*
X155482531Y-100116128D01*
X155480489Y-100040589D01*
X155474845Y-99821458D01*
X155209556Y-100062099D01*
X155135722Y-100128875D01*
X155070542Y-100186991D01*
X155018348Y-100231949D01*
X154977273Y-100264871D01*
X154945455Y-100286879D01*
X154921026Y-100299094D01*
X154902124Y-100302639D01*
X154886883Y-100298636D01*
X154873439Y-100288207D01*
X154859927Y-100272474D01*
X154853682Y-100263991D01*
X154848050Y-100253413D01*
X154843839Y-100239255D01*
X154840887Y-100218803D01*
X154839032Y-100189342D01*
X154838113Y-100148161D01*
X154837968Y-100092544D01*
X154838435Y-100019779D01*
X154839352Y-99927151D01*
X154842667Y-99612199D01*
X154869318Y-99590633D01*
X154895383Y-99574441D01*
X154928241Y-99571670D01*
X154962772Y-99590623D01*
X154967084Y-99594208D01*
X154975216Y-99602737D01*
X154981245Y-99614329D01*
X154985606Y-99632235D01*
X154988734Y-99659706D01*
X154991063Y-99699994D01*
X154993029Y-99756351D01*
X154995067Y-99832029D01*
X155000711Y-100051878D01*
X155181334Y-99888084D01*
X155268072Y-99809451D01*
X155343843Y-99741058D01*
X155405980Y-99685708D01*
X155456078Y-99642338D01*
X155495735Y-99609881D01*
X155526548Y-99587273D01*
X155550114Y-99573448D01*
X155568030Y-99567343D01*
X155581893Y-99567892D01*
G36*
X155581893Y-99567892D02*
G01*
X155593301Y-99574029D01*
X155603850Y-99584691D01*
X155615136Y-99598811D01*
X155619589Y-99604772D01*
X155625588Y-99615268D01*
X155630167Y-99629093D01*
X155633519Y-99648998D01*
X155635833Y-99677732D01*
X155637301Y-99718045D01*
X155638113Y-99772687D01*
X155638460Y-99844407D01*
X155638534Y-99935956D01*
X155638511Y-99994486D01*
X155638292Y-100073573D01*
X155637683Y-100134516D01*
X155636492Y-100180062D01*
X155634529Y-100212963D01*
X155631603Y-100235968D01*
X155627523Y-100251826D01*
X155622097Y-100263286D01*
X155615136Y-100273100D01*
X155584708Y-100297493D01*
X155549765Y-100300372D01*
X155512784Y-100281282D01*
X155508600Y-100277807D01*
X155500424Y-100269279D01*
X155494364Y-100257728D01*
X155489981Y-100239896D01*
X155486839Y-100212524D01*
X155484502Y-100172354D01*
X155482531Y-100116128D01*
X155480489Y-100040589D01*
X155474845Y-99821458D01*
X155209556Y-100062099D01*
X155135722Y-100128875D01*
X155070542Y-100186991D01*
X155018348Y-100231949D01*
X154977273Y-100264871D01*
X154945455Y-100286879D01*
X154921026Y-100299094D01*
X154902124Y-100302639D01*
X154886883Y-100298636D01*
X154873439Y-100288207D01*
X154859927Y-100272474D01*
X154853682Y-100263991D01*
X154848050Y-100253413D01*
X154843839Y-100239255D01*
X154840887Y-100218803D01*
X154839032Y-100189342D01*
X154838113Y-100148161D01*
X154837968Y-100092544D01*
X154838435Y-100019779D01*
X154839352Y-99927151D01*
X154842667Y-99612199D01*
X154869318Y-99590633D01*
X154895383Y-99574441D01*
X154928241Y-99571670D01*
X154962772Y-99590623D01*
X154967084Y-99594208D01*
X154975216Y-99602737D01*
X154981245Y-99614329D01*
X154985606Y-99632235D01*
X154988734Y-99659706D01*
X154991063Y-99699994D01*
X154993029Y-99756351D01*
X154995067Y-99832029D01*
X155000711Y-100051878D01*
X155181334Y-99888084D01*
X155268072Y-99809451D01*
X155343843Y-99741058D01*
X155405980Y-99685708D01*
X155456078Y-99642338D01*
X155495735Y-99609881D01*
X155526548Y-99587273D01*
X155550114Y-99573448D01*
X155568030Y-99567343D01*
X155581893Y-99567892D01*
G37*
X156379150Y-99574179D02*
X156485157Y-99590494D01*
X156578969Y-99618545D01*
X156657765Y-99657452D01*
X156718719Y-99706334D01*
X156744789Y-99739195D01*
X156774297Y-99788394D01*
X156799568Y-99842252D01*
X156817218Y-99893419D01*
X156823858Y-99934544D01*
X156822298Y-99954259D01*
X156809357Y-100005592D01*
X156786194Y-100062118D01*
X156756302Y-100116035D01*
X156723173Y-100159539D01*
X156712977Y-100169887D01*
X156645892Y-100221662D01*
X156565766Y-100261554D01*
X156479556Y-100285956D01*
X156424592Y-100294068D01*
X156331139Y-100300673D01*
X156241358Y-100298586D01*
X156158869Y-100288340D01*
X156087286Y-100270470D01*
X156030228Y-100245508D01*
X155991311Y-100213988D01*
X155989936Y-100212012D01*
X155982848Y-100186786D01*
X155978609Y-100139535D01*
X155977200Y-100070071D01*
X155978060Y-100007838D01*
X155982780Y-99960456D01*
X155994470Y-99928353D01*
X156016239Y-99908800D01*
X156051198Y-99899070D01*
X156102456Y-99896433D01*
X156173123Y-99898161D01*
X156221743Y-99901173D01*
X156271939Y-99909366D01*
X156304433Y-99923419D01*
X156321892Y-99944654D01*
X156326983Y-99974394D01*
X156326877Y-99978936D01*
X156318175Y-100013730D01*
X156294165Y-100037147D01*
X156252900Y-100050347D01*
X156192431Y-100054489D01*
X156123956Y-100054489D01*
X156123956Y-100092841D01*
X156124006Y-100101976D01*
X156126227Y-100119227D01*
X156135494Y-100129521D01*
X156156875Y-100136459D01*
X156195436Y-100143641D01*
X156200910Y-100144575D01*
X156297860Y-100154478D01*
X156387852Y-100151559D01*
X156468760Y-100136829D01*
X156538459Y-100111299D01*
X156594824Y-100075978D01*
X156635729Y-100031879D01*
X156659051Y-99980012D01*
X156662663Y-99921388D01*
X156657145Y-99892494D01*
X156630461Y-99836604D01*
X156584273Y-99790945D01*
X156519291Y-99756108D01*
X156436229Y-99732690D01*
X156411555Y-99728241D01*
X156322226Y-99717742D01*
X156242419Y-99718971D01*
X156164326Y-99731906D01*
X156129183Y-99738696D01*
X156083745Y-99739713D01*
X156052430Y-99727182D01*
X156032277Y-99700395D01*
X156025893Y-99672148D01*
X156035379Y-99640924D01*
X156044708Y-99627499D01*
X156078943Y-99603967D01*
X156131565Y-99586095D01*
X156200081Y-99574599D01*
X156282000Y-99570192D01*
X156379150Y-99574179D01*
G36*
X156379150Y-99574179D02*
G01*
X156485157Y-99590494D01*
X156578969Y-99618545D01*
X156657765Y-99657452D01*
X156718719Y-99706334D01*
X156744789Y-99739195D01*
X156774297Y-99788394D01*
X156799568Y-99842252D01*
X156817218Y-99893419D01*
X156823858Y-99934544D01*
X156822298Y-99954259D01*
X156809357Y-100005592D01*
X156786194Y-100062118D01*
X156756302Y-100116035D01*
X156723173Y-100159539D01*
X156712977Y-100169887D01*
X156645892Y-100221662D01*
X156565766Y-100261554D01*
X156479556Y-100285956D01*
X156424592Y-100294068D01*
X156331139Y-100300673D01*
X156241358Y-100298586D01*
X156158869Y-100288340D01*
X156087286Y-100270470D01*
X156030228Y-100245508D01*
X155991311Y-100213988D01*
X155989936Y-100212012D01*
X155982848Y-100186786D01*
X155978609Y-100139535D01*
X155977200Y-100070071D01*
X155978060Y-100007838D01*
X155982780Y-99960456D01*
X155994470Y-99928353D01*
X156016239Y-99908800D01*
X156051198Y-99899070D01*
X156102456Y-99896433D01*
X156173123Y-99898161D01*
X156221743Y-99901173D01*
X156271939Y-99909366D01*
X156304433Y-99923419D01*
X156321892Y-99944654D01*
X156326983Y-99974394D01*
X156326877Y-99978936D01*
X156318175Y-100013730D01*
X156294165Y-100037147D01*
X156252900Y-100050347D01*
X156192431Y-100054489D01*
X156123956Y-100054489D01*
X156123956Y-100092841D01*
X156124006Y-100101976D01*
X156126227Y-100119227D01*
X156135494Y-100129521D01*
X156156875Y-100136459D01*
X156195436Y-100143641D01*
X156200910Y-100144575D01*
X156297860Y-100154478D01*
X156387852Y-100151559D01*
X156468760Y-100136829D01*
X156538459Y-100111299D01*
X156594824Y-100075978D01*
X156635729Y-100031879D01*
X156659051Y-99980012D01*
X156662663Y-99921388D01*
X156657145Y-99892494D01*
X156630461Y-99836604D01*
X156584273Y-99790945D01*
X156519291Y-99756108D01*
X156436229Y-99732690D01*
X156411555Y-99728241D01*
X156322226Y-99717742D01*
X156242419Y-99718971D01*
X156164326Y-99731906D01*
X156129183Y-99738696D01*
X156083745Y-99739713D01*
X156052430Y-99727182D01*
X156032277Y-99700395D01*
X156025893Y-99672148D01*
X156035379Y-99640924D01*
X156044708Y-99627499D01*
X156078943Y-99603967D01*
X156131565Y-99586095D01*
X156200081Y-99574599D01*
X156282000Y-99570192D01*
X156379150Y-99574179D01*
G37*
X154429803Y-99598811D02*
X154434752Y-99605495D01*
X154440596Y-99616066D01*
X154445057Y-99630153D01*
X154448321Y-99650478D01*
X154450574Y-99679765D01*
X154452002Y-99720737D01*
X154452792Y-99776117D01*
X154453129Y-99848628D01*
X154453200Y-99940994D01*
X154453171Y-100006911D01*
X154452939Y-100085228D01*
X154452319Y-100145496D01*
X154451126Y-100190393D01*
X154449179Y-100222602D01*
X154446294Y-100244800D01*
X154442288Y-100259669D01*
X154436979Y-100269889D01*
X154430183Y-100278138D01*
X154425668Y-100282795D01*
X154417438Y-100289282D01*
X154406078Y-100294194D01*
X154388810Y-100297749D01*
X154362855Y-100300167D01*
X154325436Y-100301667D01*
X154273773Y-100302467D01*
X154205089Y-100302787D01*
X154116606Y-100302845D01*
X154096931Y-100302838D01*
X154009906Y-100302572D01*
X153942254Y-100301806D01*
X153891299Y-100300392D01*
X153854367Y-100298180D01*
X153828783Y-100295022D01*
X153811871Y-100290769D01*
X153800957Y-100285271D01*
X153790464Y-100275285D01*
X153777203Y-100244168D01*
X153778386Y-100208280D01*
X153794550Y-100176733D01*
X153796739Y-100174457D01*
X153805427Y-100168189D01*
X153818769Y-100163523D01*
X153839752Y-100160227D01*
X153871363Y-100158068D01*
X153916590Y-100156814D01*
X153978420Y-100156231D01*
X154059839Y-100156089D01*
X154306445Y-100156089D01*
X154306445Y-99998045D01*
X154144006Y-99998045D01*
X154108338Y-99997964D01*
X154052568Y-99997167D01*
X154013430Y-99995162D01*
X153986976Y-99991521D01*
X153969259Y-99985812D01*
X153956329Y-99977607D01*
X153952686Y-99974423D01*
X153934278Y-99943448D01*
X153933644Y-99907112D01*
X153951183Y-99873493D01*
X153951245Y-99873424D01*
X153960916Y-99864798D01*
X153974209Y-99858742D01*
X153994917Y-99854811D01*
X154026828Y-99852556D01*
X154073734Y-99851531D01*
X154139424Y-99851289D01*
X154307571Y-99851289D01*
X154304186Y-99786378D01*
X154300800Y-99721467D01*
X154058723Y-99718414D01*
X154033707Y-99718086D01*
X153952087Y-99716606D01*
X153889768Y-99714222D01*
X153844154Y-99710227D01*
X153812652Y-99703913D01*
X153792667Y-99694574D01*
X153781604Y-99681503D01*
X153776869Y-99663992D01*
X153775867Y-99641335D01*
X153775873Y-99638970D01*
X153777027Y-99618939D01*
X153781824Y-99603146D01*
X153792632Y-99591090D01*
X153811817Y-99582267D01*
X153841745Y-99576175D01*
X153884783Y-99572311D01*
X153943299Y-99570174D01*
X154019657Y-99569260D01*
X154116226Y-99569067D01*
X154406406Y-99569067D01*
X154429803Y-99598811D01*
G36*
X154429803Y-99598811D02*
G01*
X154434752Y-99605495D01*
X154440596Y-99616066D01*
X154445057Y-99630153D01*
X154448321Y-99650478D01*
X154450574Y-99679765D01*
X154452002Y-99720737D01*
X154452792Y-99776117D01*
X154453129Y-99848628D01*
X154453200Y-99940994D01*
X154453171Y-100006911D01*
X154452939Y-100085228D01*
X154452319Y-100145496D01*
X154451126Y-100190393D01*
X154449179Y-100222602D01*
X154446294Y-100244800D01*
X154442288Y-100259669D01*
X154436979Y-100269889D01*
X154430183Y-100278138D01*
X154425668Y-100282795D01*
X154417438Y-100289282D01*
X154406078Y-100294194D01*
X154388810Y-100297749D01*
X154362855Y-100300167D01*
X154325436Y-100301667D01*
X154273773Y-100302467D01*
X154205089Y-100302787D01*
X154116606Y-100302845D01*
X154096931Y-100302838D01*
X154009906Y-100302572D01*
X153942254Y-100301806D01*
X153891299Y-100300392D01*
X153854367Y-100298180D01*
X153828783Y-100295022D01*
X153811871Y-100290769D01*
X153800957Y-100285271D01*
X153790464Y-100275285D01*
X153777203Y-100244168D01*
X153778386Y-100208280D01*
X153794550Y-100176733D01*
X153796739Y-100174457D01*
X153805427Y-100168189D01*
X153818769Y-100163523D01*
X153839752Y-100160227D01*
X153871363Y-100158068D01*
X153916590Y-100156814D01*
X153978420Y-100156231D01*
X154059839Y-100156089D01*
X154306445Y-100156089D01*
X154306445Y-99998045D01*
X154144006Y-99998045D01*
X154108338Y-99997964D01*
X154052568Y-99997167D01*
X154013430Y-99995162D01*
X153986976Y-99991521D01*
X153969259Y-99985812D01*
X153956329Y-99977607D01*
X153952686Y-99974423D01*
X153934278Y-99943448D01*
X153933644Y-99907112D01*
X153951183Y-99873493D01*
X153951245Y-99873424D01*
X153960916Y-99864798D01*
X153974209Y-99858742D01*
X153994917Y-99854811D01*
X154026828Y-99852556D01*
X154073734Y-99851531D01*
X154139424Y-99851289D01*
X154307571Y-99851289D01*
X154304186Y-99786378D01*
X154300800Y-99721467D01*
X154058723Y-99718414D01*
X154033707Y-99718086D01*
X153952087Y-99716606D01*
X153889768Y-99714222D01*
X153844154Y-99710227D01*
X153812652Y-99703913D01*
X153792667Y-99694574D01*
X153781604Y-99681503D01*
X153776869Y-99663992D01*
X153775867Y-99641335D01*
X153775873Y-99638970D01*
X153777027Y-99618939D01*
X153781824Y-99603146D01*
X153792632Y-99591090D01*
X153811817Y-99582267D01*
X153841745Y-99576175D01*
X153884783Y-99572311D01*
X153943299Y-99570174D01*
X154019657Y-99569260D01*
X154116226Y-99569067D01*
X154406406Y-99569067D01*
X154429803Y-99598811D01*
G37*
X159106734Y-99569083D02*
X159183831Y-99569275D01*
X159242777Y-99569860D01*
X159286364Y-99571051D01*
X159317383Y-99573064D01*
X159338625Y-99576112D01*
X159352882Y-99580409D01*
X159362945Y-99586172D01*
X159371606Y-99593612D01*
X159373391Y-99595293D01*
X159380635Y-99602832D01*
X159386277Y-99611850D01*
X159390517Y-99624984D01*
X159393556Y-99644872D01*
X159395594Y-99674151D01*
X159396830Y-99715458D01*
X159397465Y-99771431D01*
X159397700Y-99844707D01*
X159397734Y-99937923D01*
X159397697Y-100010713D01*
X159397448Y-100088889D01*
X159396812Y-100149103D01*
X159395615Y-100193982D01*
X159393684Y-100226152D01*
X159390846Y-100248239D01*
X159386927Y-100262870D01*
X159381755Y-100272670D01*
X159375156Y-100280267D01*
X159371822Y-100283444D01*
X159363300Y-100289554D01*
X159351298Y-100294229D01*
X159333087Y-100297659D01*
X159305940Y-100300036D01*
X159267129Y-100301552D01*
X159213924Y-100302398D01*
X159143598Y-100302765D01*
X159053422Y-100302845D01*
X159011314Y-100302833D01*
X158930167Y-100302651D01*
X158867675Y-100302098D01*
X158821109Y-100300982D01*
X158787741Y-100299113D01*
X158764844Y-100296298D01*
X158749688Y-100292346D01*
X158739546Y-100287066D01*
X158731689Y-100280267D01*
X158716963Y-100258667D01*
X158709111Y-100229467D01*
X158714610Y-100205560D01*
X158731689Y-100178667D01*
X158736668Y-100174059D01*
X158746443Y-100167772D01*
X158760559Y-100163146D01*
X158782054Y-100159930D01*
X158813968Y-100157870D01*
X158859342Y-100156712D01*
X158921213Y-100156202D01*
X159002622Y-100156089D01*
X159250978Y-100156089D01*
X159250978Y-99998045D01*
X159089801Y-99998045D01*
X159053983Y-99997899D01*
X158988359Y-99996176D01*
X158941118Y-99991741D01*
X158909383Y-99983637D01*
X158890277Y-99970906D01*
X158880923Y-99952592D01*
X158878445Y-99927738D01*
X158879242Y-99907482D01*
X158884494Y-99885656D01*
X158897288Y-99870304D01*
X158920628Y-99860309D01*
X158957517Y-99854553D01*
X159010959Y-99851919D01*
X159083958Y-99851289D01*
X159252105Y-99851289D01*
X159248719Y-99786378D01*
X159245334Y-99721467D01*
X158997617Y-99718418D01*
X158935026Y-99717539D01*
X158866565Y-99716095D01*
X158815661Y-99714164D01*
X158779408Y-99711514D01*
X158754901Y-99707910D01*
X158739235Y-99703121D01*
X158729506Y-99696913D01*
X158723491Y-99690510D01*
X158710482Y-99658828D01*
X158714043Y-99623142D01*
X158733818Y-99592084D01*
X158737069Y-99589161D01*
X158746049Y-99582810D01*
X158758153Y-99577957D01*
X158776159Y-99574403D01*
X158802847Y-99571946D01*
X158840997Y-99570385D01*
X158893386Y-99569518D01*
X158962794Y-99569146D01*
X159052001Y-99569067D01*
X159106734Y-99569083D01*
G36*
X159106734Y-99569083D02*
G01*
X159183831Y-99569275D01*
X159242777Y-99569860D01*
X159286364Y-99571051D01*
X159317383Y-99573064D01*
X159338625Y-99576112D01*
X159352882Y-99580409D01*
X159362945Y-99586172D01*
X159371606Y-99593612D01*
X159373391Y-99595293D01*
X159380635Y-99602832D01*
X159386277Y-99611850D01*
X159390517Y-99624984D01*
X159393556Y-99644872D01*
X159395594Y-99674151D01*
X159396830Y-99715458D01*
X159397465Y-99771431D01*
X159397700Y-99844707D01*
X159397734Y-99937923D01*
X159397697Y-100010713D01*
X159397448Y-100088889D01*
X159396812Y-100149103D01*
X159395615Y-100193982D01*
X159393684Y-100226152D01*
X159390846Y-100248239D01*
X159386927Y-100262870D01*
X159381755Y-100272670D01*
X159375156Y-100280267D01*
X159371822Y-100283444D01*
X159363300Y-100289554D01*
X159351298Y-100294229D01*
X159333087Y-100297659D01*
X159305940Y-100300036D01*
X159267129Y-100301552D01*
X159213924Y-100302398D01*
X159143598Y-100302765D01*
X159053422Y-100302845D01*
X159011314Y-100302833D01*
X158930167Y-100302651D01*
X158867675Y-100302098D01*
X158821109Y-100300982D01*
X158787741Y-100299113D01*
X158764844Y-100296298D01*
X158749688Y-100292346D01*
X158739546Y-100287066D01*
X158731689Y-100280267D01*
X158716963Y-100258667D01*
X158709111Y-100229467D01*
X158714610Y-100205560D01*
X158731689Y-100178667D01*
X158736668Y-100174059D01*
X158746443Y-100167772D01*
X158760559Y-100163146D01*
X158782054Y-100159930D01*
X158813968Y-100157870D01*
X158859342Y-100156712D01*
X158921213Y-100156202D01*
X159002622Y-100156089D01*
X159250978Y-100156089D01*
X159250978Y-99998045D01*
X159089801Y-99998045D01*
X159053983Y-99997899D01*
X158988359Y-99996176D01*
X158941118Y-99991741D01*
X158909383Y-99983637D01*
X158890277Y-99970906D01*
X158880923Y-99952592D01*
X158878445Y-99927738D01*
X158879242Y-99907482D01*
X158884494Y-99885656D01*
X158897288Y-99870304D01*
X158920628Y-99860309D01*
X158957517Y-99854553D01*
X159010959Y-99851919D01*
X159083958Y-99851289D01*
X159252105Y-99851289D01*
X159248719Y-99786378D01*
X159245334Y-99721467D01*
X158997617Y-99718418D01*
X158935026Y-99717539D01*
X158866565Y-99716095D01*
X158815661Y-99714164D01*
X158779408Y-99711514D01*
X158754901Y-99707910D01*
X158739235Y-99703121D01*
X158729506Y-99696913D01*
X158723491Y-99690510D01*
X158710482Y-99658828D01*
X158714043Y-99623142D01*
X158733818Y-99592084D01*
X158737069Y-99589161D01*
X158746049Y-99582810D01*
X158758153Y-99577957D01*
X158776159Y-99574403D01*
X158802847Y-99571946D01*
X158840997Y-99570385D01*
X158893386Y-99569518D01*
X158962794Y-99569146D01*
X159052001Y-99569067D01*
X159106734Y-99569083D01*
G37*
X150539702Y-99578478D02*
X150557663Y-99596989D01*
X150578263Y-99628071D01*
X150603095Y-99673756D01*
X150633750Y-99736078D01*
X150671820Y-99817071D01*
X150686454Y-99848454D01*
X150716203Y-99911638D01*
X150742297Y-99966244D01*
X150763292Y-100009290D01*
X150777739Y-100037793D01*
X150784191Y-100048770D01*
X150785550Y-100048189D01*
X150795542Y-100034242D01*
X150812833Y-100004704D01*
X150835430Y-99963087D01*
X150861338Y-99912903D01*
X150877311Y-99881414D01*
X150906261Y-99826061D01*
X150928749Y-99787044D01*
X150946965Y-99761566D01*
X150963096Y-99746831D01*
X150979330Y-99740042D01*
X150997857Y-99738400D01*
X151008360Y-99738875D01*
X151024476Y-99743082D01*
X151039790Y-99753946D01*
X151056388Y-99774219D01*
X151076357Y-99806654D01*
X151101783Y-99854004D01*
X151134752Y-99919022D01*
X151144485Y-99938277D01*
X151168943Y-99984946D01*
X151189178Y-100021109D01*
X151203311Y-100043497D01*
X151209460Y-100048845D01*
X151210827Y-100045573D01*
X151220202Y-100024664D01*
X151237062Y-99987725D01*
X151259979Y-99937874D01*
X151287520Y-99878226D01*
X151318255Y-99811898D01*
X151344970Y-99754677D01*
X151374593Y-99692688D01*
X151397664Y-99646949D01*
X151415643Y-99614908D01*
X151429990Y-99594014D01*
X151442166Y-99581718D01*
X151453632Y-99575466D01*
X151463042Y-99572574D01*
X151488147Y-99572425D01*
X151515290Y-99587768D01*
X151516590Y-99588753D01*
X151538674Y-99611388D01*
X151549723Y-99633613D01*
X151549769Y-99634253D01*
X151545228Y-99651915D01*
X151532364Y-99686481D01*
X151512605Y-99734826D01*
X151487381Y-99793825D01*
X151458119Y-99860355D01*
X151426250Y-99931291D01*
X151393201Y-100003507D01*
X151360401Y-100073880D01*
X151329280Y-100139285D01*
X151301265Y-100196597D01*
X151277786Y-100242692D01*
X151260272Y-100274446D01*
X151250151Y-100288733D01*
X151215743Y-100302102D01*
X151174046Y-100295741D01*
X151168681Y-100291044D01*
X151152852Y-100268893D01*
X151130650Y-100232132D01*
X151104233Y-100184415D01*
X151075760Y-100129393D01*
X150995986Y-99970150D01*
X150922799Y-100116742D01*
X150913103Y-100136032D01*
X150886125Y-100188380D01*
X150862096Y-100233170D01*
X150843332Y-100266154D01*
X150832146Y-100283089D01*
X150831000Y-100284332D01*
X150802879Y-100299619D01*
X150767817Y-100301302D01*
X150736776Y-100288733D01*
X150734350Y-100285884D01*
X150722090Y-100265259D01*
X150702352Y-100227708D01*
X150676448Y-100175880D01*
X150645685Y-100112423D01*
X150611375Y-100039985D01*
X150574825Y-99961216D01*
X150554585Y-99917093D01*
X150517812Y-99836365D01*
X150489355Y-99772687D01*
X150468331Y-99723752D01*
X150453854Y-99687257D01*
X150445039Y-99660895D01*
X150441004Y-99642361D01*
X150440862Y-99629352D01*
X150443730Y-99619561D01*
X150458387Y-99598678D01*
X150484990Y-99578377D01*
X150485745Y-99578035D01*
X150505335Y-99571034D01*
X150522790Y-99570504D01*
X150539702Y-99578478D01*
G36*
X150539702Y-99578478D02*
G01*
X150557663Y-99596989D01*
X150578263Y-99628071D01*
X150603095Y-99673756D01*
X150633750Y-99736078D01*
X150671820Y-99817071D01*
X150686454Y-99848454D01*
X150716203Y-99911638D01*
X150742297Y-99966244D01*
X150763292Y-100009290D01*
X150777739Y-100037793D01*
X150784191Y-100048770D01*
X150785550Y-100048189D01*
X150795542Y-100034242D01*
X150812833Y-100004704D01*
X150835430Y-99963087D01*
X150861338Y-99912903D01*
X150877311Y-99881414D01*
X150906261Y-99826061D01*
X150928749Y-99787044D01*
X150946965Y-99761566D01*
X150963096Y-99746831D01*
X150979330Y-99740042D01*
X150997857Y-99738400D01*
X151008360Y-99738875D01*
X151024476Y-99743082D01*
X151039790Y-99753946D01*
X151056388Y-99774219D01*
X151076357Y-99806654D01*
X151101783Y-99854004D01*
X151134752Y-99919022D01*
X151144485Y-99938277D01*
X151168943Y-99984946D01*
X151189178Y-100021109D01*
X151203311Y-100043497D01*
X151209460Y-100048845D01*
X151210827Y-100045573D01*
X151220202Y-100024664D01*
X151237062Y-99987725D01*
X151259979Y-99937874D01*
X151287520Y-99878226D01*
X151318255Y-99811898D01*
X151344970Y-99754677D01*
X151374593Y-99692688D01*
X151397664Y-99646949D01*
X151415643Y-99614908D01*
X151429990Y-99594014D01*
X151442166Y-99581718D01*
X151453632Y-99575466D01*
X151463042Y-99572574D01*
X151488147Y-99572425D01*
X151515290Y-99587768D01*
X151516590Y-99588753D01*
X151538674Y-99611388D01*
X151549723Y-99633613D01*
X151549769Y-99634253D01*
X151545228Y-99651915D01*
X151532364Y-99686481D01*
X151512605Y-99734826D01*
X151487381Y-99793825D01*
X151458119Y-99860355D01*
X151426250Y-99931291D01*
X151393201Y-100003507D01*
X151360401Y-100073880D01*
X151329280Y-100139285D01*
X151301265Y-100196597D01*
X151277786Y-100242692D01*
X151260272Y-100274446D01*
X151250151Y-100288733D01*
X151215743Y-100302102D01*
X151174046Y-100295741D01*
X151168681Y-100291044D01*
X151152852Y-100268893D01*
X151130650Y-100232132D01*
X151104233Y-100184415D01*
X151075760Y-100129393D01*
X150995986Y-99970150D01*
X150922799Y-100116742D01*
X150913103Y-100136032D01*
X150886125Y-100188380D01*
X150862096Y-100233170D01*
X150843332Y-100266154D01*
X150832146Y-100283089D01*
X150831000Y-100284332D01*
X150802879Y-100299619D01*
X150767817Y-100301302D01*
X150736776Y-100288733D01*
X150734350Y-100285884D01*
X150722090Y-100265259D01*
X150702352Y-100227708D01*
X150676448Y-100175880D01*
X150645685Y-100112423D01*
X150611375Y-100039985D01*
X150574825Y-99961216D01*
X150554585Y-99917093D01*
X150517812Y-99836365D01*
X150489355Y-99772687D01*
X150468331Y-99723752D01*
X150453854Y-99687257D01*
X150445039Y-99660895D01*
X150441004Y-99642361D01*
X150440862Y-99629352D01*
X150443730Y-99619561D01*
X150458387Y-99598678D01*
X150484990Y-99578377D01*
X150485745Y-99578035D01*
X150505335Y-99571034D01*
X150522790Y-99570504D01*
X150539702Y-99578478D01*
G37*
X158090853Y-99569936D02*
X158157100Y-99575366D01*
X158212400Y-99584964D01*
X158263283Y-99599825D01*
X158334595Y-99632958D01*
X158385752Y-99675640D01*
X158416575Y-99727705D01*
X158426889Y-99788983D01*
X158425952Y-99820232D01*
X158420160Y-99845029D01*
X158405353Y-99866699D01*
X158377380Y-99894049D01*
X158369402Y-99901378D01*
X158345692Y-99922281D01*
X158323298Y-99939251D01*
X158299265Y-99953205D01*
X158270637Y-99965056D01*
X158234460Y-99975720D01*
X158187780Y-99986111D01*
X158127641Y-99997146D01*
X158051090Y-100009738D01*
X157955171Y-100024804D01*
X157936808Y-100027838D01*
X157874478Y-100041458D01*
X157829260Y-100057192D01*
X157802976Y-100074263D01*
X157797447Y-100091897D01*
X157800068Y-100096168D01*
X157818000Y-100111233D01*
X157846126Y-100127867D01*
X157858926Y-100133857D01*
X157880224Y-100141050D01*
X157906610Y-100145827D01*
X157942454Y-100148646D01*
X157992128Y-100149964D01*
X158060000Y-100150237D01*
X158077785Y-100150164D01*
X158145406Y-100149053D01*
X158210345Y-100146828D01*
X158265970Y-100143762D01*
X158305651Y-100140127D01*
X158341162Y-100136059D01*
X158370415Y-100135276D01*
X158389315Y-100139876D01*
X158404429Y-100150551D01*
X158408085Y-100154144D01*
X158424427Y-100185918D01*
X158423107Y-100221572D01*
X158404150Y-100252190D01*
X158383780Y-100263796D01*
X158347796Y-100276491D01*
X158305372Y-100286541D01*
X158301922Y-100287140D01*
X158259252Y-100292356D01*
X158201866Y-100296730D01*
X158136849Y-100299818D01*
X158071289Y-100301177D01*
X158055057Y-100301218D01*
X157956744Y-100298741D01*
X157876692Y-100290735D01*
X157811513Y-100276203D01*
X157757817Y-100254149D01*
X157712216Y-100223576D01*
X157671323Y-100183486D01*
X157651202Y-100157259D01*
X157639576Y-100127712D01*
X157636667Y-100087995D01*
X157636808Y-100076026D01*
X157640681Y-100043345D01*
X157653065Y-100016819D01*
X157678230Y-99985971D01*
X157699442Y-99963831D01*
X157725838Y-99941285D01*
X157755555Y-99922917D01*
X157791785Y-99907661D01*
X157837717Y-99894449D01*
X157896544Y-99882214D01*
X157971456Y-99869889D01*
X158065645Y-99856406D01*
X158110957Y-99849396D01*
X158178911Y-99834837D01*
X158228047Y-99818337D01*
X158257614Y-99800439D01*
X158266864Y-99781685D01*
X158255048Y-99762615D01*
X158221416Y-99743771D01*
X158218370Y-99742557D01*
X158172011Y-99730479D01*
X158109361Y-99722279D01*
X158035927Y-99718119D01*
X157957217Y-99718161D01*
X157878739Y-99722569D01*
X157806000Y-99731505D01*
X157802073Y-99732154D01*
X157753257Y-99739861D01*
X157721005Y-99743473D01*
X157700008Y-99742876D01*
X157684954Y-99737954D01*
X157670534Y-99728596D01*
X157669364Y-99727725D01*
X157644847Y-99697351D01*
X157640054Y-99661850D01*
X157655860Y-99627269D01*
X157660406Y-99622813D01*
X157690020Y-99607673D01*
X157737002Y-99594550D01*
X157797306Y-99583750D01*
X157866888Y-99575581D01*
X157941703Y-99570351D01*
X158017706Y-99568367D01*
X158090853Y-99569936D01*
G36*
X158090853Y-99569936D02*
G01*
X158157100Y-99575366D01*
X158212400Y-99584964D01*
X158263283Y-99599825D01*
X158334595Y-99632958D01*
X158385752Y-99675640D01*
X158416575Y-99727705D01*
X158426889Y-99788983D01*
X158425952Y-99820232D01*
X158420160Y-99845029D01*
X158405353Y-99866699D01*
X158377380Y-99894049D01*
X158369402Y-99901378D01*
X158345692Y-99922281D01*
X158323298Y-99939251D01*
X158299265Y-99953205D01*
X158270637Y-99965056D01*
X158234460Y-99975720D01*
X158187780Y-99986111D01*
X158127641Y-99997146D01*
X158051090Y-100009738D01*
X157955171Y-100024804D01*
X157936808Y-100027838D01*
X157874478Y-100041458D01*
X157829260Y-100057192D01*
X157802976Y-100074263D01*
X157797447Y-100091897D01*
X157800068Y-100096168D01*
X157818000Y-100111233D01*
X157846126Y-100127867D01*
X157858926Y-100133857D01*
X157880224Y-100141050D01*
X157906610Y-100145827D01*
X157942454Y-100148646D01*
X157992128Y-100149964D01*
X158060000Y-100150237D01*
X158077785Y-100150164D01*
X158145406Y-100149053D01*
X158210345Y-100146828D01*
X158265970Y-100143762D01*
X158305651Y-100140127D01*
X158341162Y-100136059D01*
X158370415Y-100135276D01*
X158389315Y-100139876D01*
X158404429Y-100150551D01*
X158408085Y-100154144D01*
X158424427Y-100185918D01*
X158423107Y-100221572D01*
X158404150Y-100252190D01*
X158383780Y-100263796D01*
X158347796Y-100276491D01*
X158305372Y-100286541D01*
X158301922Y-100287140D01*
X158259252Y-100292356D01*
X158201866Y-100296730D01*
X158136849Y-100299818D01*
X158071289Y-100301177D01*
X158055057Y-100301218D01*
X157956744Y-100298741D01*
X157876692Y-100290735D01*
X157811513Y-100276203D01*
X157757817Y-100254149D01*
X157712216Y-100223576D01*
X157671323Y-100183486D01*
X157651202Y-100157259D01*
X157639576Y-100127712D01*
X157636667Y-100087995D01*
X157636808Y-100076026D01*
X157640681Y-100043345D01*
X157653065Y-100016819D01*
X157678230Y-99985971D01*
X157699442Y-99963831D01*
X157725838Y-99941285D01*
X157755555Y-99922917D01*
X157791785Y-99907661D01*
X157837717Y-99894449D01*
X157896544Y-99882214D01*
X157971456Y-99869889D01*
X158065645Y-99856406D01*
X158110957Y-99849396D01*
X158178911Y-99834837D01*
X158228047Y-99818337D01*
X158257614Y-99800439D01*
X158266864Y-99781685D01*
X158255048Y-99762615D01*
X158221416Y-99743771D01*
X158218370Y-99742557D01*
X158172011Y-99730479D01*
X158109361Y-99722279D01*
X158035927Y-99718119D01*
X157957217Y-99718161D01*
X157878739Y-99722569D01*
X157806000Y-99731505D01*
X157802073Y-99732154D01*
X157753257Y-99739861D01*
X157721005Y-99743473D01*
X157700008Y-99742876D01*
X157684954Y-99737954D01*
X157670534Y-99728596D01*
X157669364Y-99727725D01*
X157644847Y-99697351D01*
X157640054Y-99661850D01*
X157655860Y-99627269D01*
X157660406Y-99622813D01*
X157690020Y-99607673D01*
X157737002Y-99594550D01*
X157797306Y-99583750D01*
X157866888Y-99575581D01*
X157941703Y-99570351D01*
X158017706Y-99568367D01*
X158090853Y-99569936D01*
G37*
X154238711Y-95262033D02*
X154334268Y-95279523D01*
X154498558Y-95324564D01*
X154652589Y-95387656D01*
X154798509Y-95469915D01*
X154938466Y-95572457D01*
X155074608Y-95696399D01*
X155118473Y-95741661D01*
X155230758Y-95873865D01*
X155323972Y-96011832D01*
X155400719Y-96159750D01*
X155463603Y-96321803D01*
X155467420Y-96333391D01*
X155517507Y-96519392D01*
X155550899Y-96715521D01*
X155567584Y-96917568D01*
X155567551Y-97121325D01*
X155550791Y-97322581D01*
X155517292Y-97517128D01*
X155467044Y-97700756D01*
X155423190Y-97818053D01*
X155345348Y-97980951D01*
X155251828Y-98134866D01*
X155144822Y-98276671D01*
X155026519Y-98403239D01*
X154899111Y-98511441D01*
X154821606Y-98564120D01*
X154694725Y-98633750D01*
X154557243Y-98692468D01*
X154415716Y-98737587D01*
X154276702Y-98766422D01*
X154262597Y-98768106D01*
X154219153Y-98771434D01*
X154161723Y-98774275D01*
X154096122Y-98776373D01*
X154028167Y-98777468D01*
X153901378Y-98775140D01*
X153753673Y-98762136D01*
X153615779Y-98737133D01*
X153482014Y-98699318D01*
X153458562Y-98690889D01*
X153410612Y-98671408D01*
X153354140Y-98646473D01*
X153292379Y-98617722D01*
X153228563Y-98586790D01*
X153165926Y-98555315D01*
X153107703Y-98524934D01*
X153057127Y-98497283D01*
X153017433Y-98473999D01*
X152991854Y-98456718D01*
X152983625Y-98447079D01*
X152985076Y-98443984D01*
X152996250Y-98424079D01*
X153017134Y-98388420D01*
X153046265Y-98339459D01*
X153082181Y-98279646D01*
X153123420Y-98211433D01*
X153168517Y-98137271D01*
X153349785Y-97840008D01*
X153396315Y-97884539D01*
X153487723Y-97962865D01*
X153601334Y-98037439D01*
X153719122Y-98091474D01*
X153839559Y-98124290D01*
X153961117Y-98135211D01*
X154002585Y-98133868D01*
X154120080Y-98115612D01*
X154230089Y-98076617D01*
X154331430Y-98017670D01*
X154422921Y-97939557D01*
X154503380Y-97843064D01*
X154571627Y-97728978D01*
X154587908Y-97694724D01*
X154633982Y-97571240D01*
X154669106Y-97432918D01*
X154693197Y-97283561D01*
X154706173Y-97126973D01*
X154707949Y-96966956D01*
X154698443Y-96807314D01*
X154677572Y-96651850D01*
X154645252Y-96504366D01*
X154601399Y-96368667D01*
X154563982Y-96282076D01*
X154499185Y-96168688D01*
X154423772Y-96075070D01*
X154337418Y-96000959D01*
X154239795Y-95946094D01*
X154130577Y-95910212D01*
X154009439Y-95893051D01*
X153940038Y-95891880D01*
X153817168Y-95906141D01*
X153701664Y-95941241D01*
X153594953Y-95996682D01*
X153498464Y-96071964D01*
X153482720Y-96086440D01*
X153452150Y-96112962D01*
X153429809Y-96130138D01*
X153419691Y-96134787D01*
X153417706Y-96132597D01*
X153403241Y-96113721D01*
X153379400Y-96080397D01*
X153348029Y-96035380D01*
X153310974Y-95981425D01*
X153270083Y-95921285D01*
X153227202Y-95857718D01*
X153184178Y-95793476D01*
X153142857Y-95731315D01*
X153105086Y-95673991D01*
X153072712Y-95624257D01*
X153047582Y-95584868D01*
X153031542Y-95558580D01*
X153026439Y-95548147D01*
X153031050Y-95543941D01*
X153050267Y-95538933D01*
X153059838Y-95536386D01*
X153087809Y-95525249D01*
X153129448Y-95506802D01*
X153180995Y-95482725D01*
X153238690Y-95454699D01*
X153249957Y-95449154D01*
X153427687Y-95369889D01*
X153597490Y-95310385D01*
X153761430Y-95270245D01*
X153921571Y-95249071D01*
X154079977Y-95246466D01*
X154238711Y-95262033D01*
G36*
X154238711Y-95262033D02*
G01*
X154334268Y-95279523D01*
X154498558Y-95324564D01*
X154652589Y-95387656D01*
X154798509Y-95469915D01*
X154938466Y-95572457D01*
X155074608Y-95696399D01*
X155118473Y-95741661D01*
X155230758Y-95873865D01*
X155323972Y-96011832D01*
X155400719Y-96159750D01*
X155463603Y-96321803D01*
X155467420Y-96333391D01*
X155517507Y-96519392D01*
X155550899Y-96715521D01*
X155567584Y-96917568D01*
X155567551Y-97121325D01*
X155550791Y-97322581D01*
X155517292Y-97517128D01*
X155467044Y-97700756D01*
X155423190Y-97818053D01*
X155345348Y-97980951D01*
X155251828Y-98134866D01*
X155144822Y-98276671D01*
X155026519Y-98403239D01*
X154899111Y-98511441D01*
X154821606Y-98564120D01*
X154694725Y-98633750D01*
X154557243Y-98692468D01*
X154415716Y-98737587D01*
X154276702Y-98766422D01*
X154262597Y-98768106D01*
X154219153Y-98771434D01*
X154161723Y-98774275D01*
X154096122Y-98776373D01*
X154028167Y-98777468D01*
X153901378Y-98775140D01*
X153753673Y-98762136D01*
X153615779Y-98737133D01*
X153482014Y-98699318D01*
X153458562Y-98690889D01*
X153410612Y-98671408D01*
X153354140Y-98646473D01*
X153292379Y-98617722D01*
X153228563Y-98586790D01*
X153165926Y-98555315D01*
X153107703Y-98524934D01*
X153057127Y-98497283D01*
X153017433Y-98473999D01*
X152991854Y-98456718D01*
X152983625Y-98447079D01*
X152985076Y-98443984D01*
X152996250Y-98424079D01*
X153017134Y-98388420D01*
X153046265Y-98339459D01*
X153082181Y-98279646D01*
X153123420Y-98211433D01*
X153168517Y-98137271D01*
X153349785Y-97840008D01*
X153396315Y-97884539D01*
X153487723Y-97962865D01*
X153601334Y-98037439D01*
X153719122Y-98091474D01*
X153839559Y-98124290D01*
X153961117Y-98135211D01*
X154002585Y-98133868D01*
X154120080Y-98115612D01*
X154230089Y-98076617D01*
X154331430Y-98017670D01*
X154422921Y-97939557D01*
X154503380Y-97843064D01*
X154571627Y-97728978D01*
X154587908Y-97694724D01*
X154633982Y-97571240D01*
X154669106Y-97432918D01*
X154693197Y-97283561D01*
X154706173Y-97126973D01*
X154707949Y-96966956D01*
X154698443Y-96807314D01*
X154677572Y-96651850D01*
X154645252Y-96504366D01*
X154601399Y-96368667D01*
X154563982Y-96282076D01*
X154499185Y-96168688D01*
X154423772Y-96075070D01*
X154337418Y-96000959D01*
X154239795Y-95946094D01*
X154130577Y-95910212D01*
X154009439Y-95893051D01*
X153940038Y-95891880D01*
X153817168Y-95906141D01*
X153701664Y-95941241D01*
X153594953Y-95996682D01*
X153498464Y-96071964D01*
X153482720Y-96086440D01*
X153452150Y-96112962D01*
X153429809Y-96130138D01*
X153419691Y-96134787D01*
X153417706Y-96132597D01*
X153403241Y-96113721D01*
X153379400Y-96080397D01*
X153348029Y-96035380D01*
X153310974Y-95981425D01*
X153270083Y-95921285D01*
X153227202Y-95857718D01*
X153184178Y-95793476D01*
X153142857Y-95731315D01*
X153105086Y-95673991D01*
X153072712Y-95624257D01*
X153047582Y-95584868D01*
X153031542Y-95558580D01*
X153026439Y-95548147D01*
X153031050Y-95543941D01*
X153050267Y-95538933D01*
X153059838Y-95536386D01*
X153087809Y-95525249D01*
X153129448Y-95506802D01*
X153180995Y-95482725D01*
X153238690Y-95454699D01*
X153249957Y-95449154D01*
X153427687Y-95369889D01*
X153597490Y-95310385D01*
X153761430Y-95270245D01*
X153921571Y-95249071D01*
X154079977Y-95246466D01*
X154238711Y-95262033D01*
G37*
X150435994Y-97542711D02*
X150435268Y-97620158D01*
X150426689Y-97771594D01*
X150407833Y-97908283D01*
X150377837Y-98034276D01*
X150335836Y-98153625D01*
X150280969Y-98270381D01*
X150214167Y-98381179D01*
X150123363Y-98494739D01*
X150019708Y-98590211D01*
X149903887Y-98667073D01*
X149776586Y-98724797D01*
X149638489Y-98762858D01*
X149600793Y-98768666D01*
X149521752Y-98774396D01*
X149433629Y-98774583D01*
X149344236Y-98769539D01*
X149261384Y-98759578D01*
X149192887Y-98745012D01*
X149162035Y-98735364D01*
X149084730Y-98705123D01*
X149007679Y-98667617D01*
X148938200Y-98626614D01*
X148883615Y-98585879D01*
X148860916Y-98566505D01*
X148838201Y-98548662D01*
X148826779Y-98541778D01*
X148825537Y-98543424D01*
X148822728Y-98561205D01*
X148820776Y-98594370D01*
X148820045Y-98637733D01*
X148820045Y-98733689D01*
X147961896Y-98733689D01*
X147996161Y-98672974D01*
X148001355Y-98663868D01*
X148009715Y-98649249D01*
X148017288Y-98635173D01*
X148024112Y-98620540D01*
X148030227Y-98604249D01*
X148035673Y-98585198D01*
X148040487Y-98562286D01*
X148044708Y-98534413D01*
X148048377Y-98500478D01*
X148051531Y-98459379D01*
X148054211Y-98410015D01*
X148056454Y-98351286D01*
X148058299Y-98282090D01*
X148059787Y-98201326D01*
X148060955Y-98107894D01*
X148061844Y-98000692D01*
X148062491Y-97878620D01*
X148062936Y-97740576D01*
X148063218Y-97585459D01*
X148063375Y-97412168D01*
X148063448Y-97219603D01*
X148063474Y-97006662D01*
X148063485Y-96870530D01*
X148865200Y-96870530D01*
X148865200Y-98020721D01*
X148935756Y-98067089D01*
X148976417Y-98090791D01*
X149030546Y-98116639D01*
X149079689Y-98134829D01*
X149143165Y-98150551D01*
X149239331Y-98161541D01*
X149323900Y-98153365D01*
X149397219Y-98125805D01*
X149459637Y-98078642D01*
X149511502Y-98011658D01*
X149553160Y-97924633D01*
X149584962Y-97817350D01*
X149587545Y-97805009D01*
X149596000Y-97743772D01*
X149601663Y-97666692D01*
X149604576Y-97579002D01*
X149604783Y-97485934D01*
X149602330Y-97392720D01*
X149597261Y-97304594D01*
X149589619Y-97226788D01*
X149579448Y-97164533D01*
X149578167Y-97158666D01*
X149549126Y-97048121D01*
X149514610Y-96957575D01*
X149473456Y-96884953D01*
X149424499Y-96828181D01*
X149366574Y-96785184D01*
X149334620Y-96769615D01*
X149261784Y-96750722D01*
X149180443Y-96747465D01*
X149095319Y-96759389D01*
X149011133Y-96786040D01*
X148932608Y-96826962D01*
X148865200Y-96870530D01*
X148063485Y-96870530D01*
X148063493Y-96772245D01*
X148063689Y-95087378D01*
X148969017Y-95087378D01*
X148944585Y-95124067D01*
X148938318Y-95133647D01*
X148912208Y-95179981D01*
X148894469Y-95227102D01*
X148882908Y-95282251D01*
X148875331Y-95352667D01*
X148874839Y-95359650D01*
X148873062Y-95397641D01*
X148871444Y-95451576D01*
X148869999Y-95518703D01*
X148868740Y-95596271D01*
X148867680Y-95681528D01*
X148866829Y-95771724D01*
X148866203Y-95864107D01*
X148865812Y-95955925D01*
X148865670Y-96044427D01*
X148865790Y-96126862D01*
X148866183Y-96200479D01*
X148866862Y-96262526D01*
X148867841Y-96310251D01*
X148869132Y-96340904D01*
X148870747Y-96351733D01*
X148878957Y-96347333D01*
X148900647Y-96332362D01*
X148930014Y-96310448D01*
X148978879Y-96276236D01*
X149067125Y-96229714D01*
X149165916Y-96196046D01*
X149278510Y-96174231D01*
X149408164Y-96163265D01*
X149500670Y-96162219D01*
X149622011Y-96172014D01*
X149732099Y-96196174D01*
X149835389Y-96235785D01*
X149936338Y-96291932D01*
X149981503Y-96322883D01*
X150086911Y-96414115D01*
X150178538Y-96523106D01*
X150256332Y-96649726D01*
X150320241Y-96793845D01*
X150370214Y-96955332D01*
X150406198Y-97134059D01*
X150428143Y-97329895D01*
X150433900Y-97485934D01*
X150435994Y-97542711D01*
G36*
X150435994Y-97542711D02*
G01*
X150435268Y-97620158D01*
X150426689Y-97771594D01*
X150407833Y-97908283D01*
X150377837Y-98034276D01*
X150335836Y-98153625D01*
X150280969Y-98270381D01*
X150214167Y-98381179D01*
X150123363Y-98494739D01*
X150019708Y-98590211D01*
X149903887Y-98667073D01*
X149776586Y-98724797D01*
X149638489Y-98762858D01*
X149600793Y-98768666D01*
X149521752Y-98774396D01*
X149433629Y-98774583D01*
X149344236Y-98769539D01*
X149261384Y-98759578D01*
X149192887Y-98745012D01*
X149162035Y-98735364D01*
X149084730Y-98705123D01*
X149007679Y-98667617D01*
X148938200Y-98626614D01*
X148883615Y-98585879D01*
X148860916Y-98566505D01*
X148838201Y-98548662D01*
X148826779Y-98541778D01*
X148825537Y-98543424D01*
X148822728Y-98561205D01*
X148820776Y-98594370D01*
X148820045Y-98637733D01*
X148820045Y-98733689D01*
X147961896Y-98733689D01*
X147996161Y-98672974D01*
X148001355Y-98663868D01*
X148009715Y-98649249D01*
X148017288Y-98635173D01*
X148024112Y-98620540D01*
X148030227Y-98604249D01*
X148035673Y-98585198D01*
X148040487Y-98562286D01*
X148044708Y-98534413D01*
X148048377Y-98500478D01*
X148051531Y-98459379D01*
X148054211Y-98410015D01*
X148056454Y-98351286D01*
X148058299Y-98282090D01*
X148059787Y-98201326D01*
X148060955Y-98107894D01*
X148061844Y-98000692D01*
X148062491Y-97878620D01*
X148062936Y-97740576D01*
X148063218Y-97585459D01*
X148063375Y-97412168D01*
X148063448Y-97219603D01*
X148063474Y-97006662D01*
X148063485Y-96870530D01*
X148865200Y-96870530D01*
X148865200Y-98020721D01*
X148935756Y-98067089D01*
X148976417Y-98090791D01*
X149030546Y-98116639D01*
X149079689Y-98134829D01*
X149143165Y-98150551D01*
X149239331Y-98161541D01*
X149323900Y-98153365D01*
X149397219Y-98125805D01*
X149459637Y-98078642D01*
X149511502Y-98011658D01*
X149553160Y-97924633D01*
X149584962Y-97817350D01*
X149587545Y-97805009D01*
X149596000Y-97743772D01*
X149601663Y-97666692D01*
X149604576Y-97579002D01*
X149604783Y-97485934D01*
X149602330Y-97392720D01*
X149597261Y-97304594D01*
X149589619Y-97226788D01*
X149579448Y-97164533D01*
X149578167Y-97158666D01*
X149549126Y-97048121D01*
X149514610Y-96957575D01*
X149473456Y-96884953D01*
X149424499Y-96828181D01*
X149366574Y-96785184D01*
X149334620Y-96769615D01*
X149261784Y-96750722D01*
X149180443Y-96747465D01*
X149095319Y-96759389D01*
X149011133Y-96786040D01*
X148932608Y-96826962D01*
X148865200Y-96870530D01*
X148063485Y-96870530D01*
X148063493Y-96772245D01*
X148063689Y-95087378D01*
X148969017Y-95087378D01*
X148944585Y-95124067D01*
X148938318Y-95133647D01*
X148912208Y-95179981D01*
X148894469Y-95227102D01*
X148882908Y-95282251D01*
X148875331Y-95352667D01*
X148874839Y-95359650D01*
X148873062Y-95397641D01*
X148871444Y-95451576D01*
X148869999Y-95518703D01*
X148868740Y-95596271D01*
X148867680Y-95681528D01*
X148866829Y-95771724D01*
X148866203Y-95864107D01*
X148865812Y-95955925D01*
X148865670Y-96044427D01*
X148865790Y-96126862D01*
X148866183Y-96200479D01*
X148866862Y-96262526D01*
X148867841Y-96310251D01*
X148869132Y-96340904D01*
X148870747Y-96351733D01*
X148878957Y-96347333D01*
X148900647Y-96332362D01*
X148930014Y-96310448D01*
X148978879Y-96276236D01*
X149067125Y-96229714D01*
X149165916Y-96196046D01*
X149278510Y-96174231D01*
X149408164Y-96163265D01*
X149500670Y-96162219D01*
X149622011Y-96172014D01*
X149732099Y-96196174D01*
X149835389Y-96235785D01*
X149936338Y-96291932D01*
X149981503Y-96322883D01*
X150086911Y-96414115D01*
X150178538Y-96523106D01*
X150256332Y-96649726D01*
X150320241Y-96793845D01*
X150370214Y-96955332D01*
X150406198Y-97134059D01*
X150428143Y-97329895D01*
X150433900Y-97485934D01*
X150435994Y-97542711D01*
G37*
X152977755Y-97943467D02*
X152977261Y-97977363D01*
X152973632Y-98052202D01*
X152966022Y-98114401D01*
X152953688Y-98170984D01*
X152909313Y-98297076D01*
X152846400Y-98411679D01*
X152766238Y-98512568D01*
X152669740Y-98598924D01*
X152557822Y-98669932D01*
X152431397Y-98724776D01*
X152291378Y-98762638D01*
X152255149Y-98768351D01*
X152176155Y-98774313D01*
X152087841Y-98774646D01*
X151998075Y-98769659D01*
X151914722Y-98759666D01*
X151845651Y-98744978D01*
X151759187Y-98714749D01*
X151649286Y-98660057D01*
X151551956Y-98592543D01*
X151489867Y-98541556D01*
X151486605Y-98637622D01*
X151483343Y-98733689D01*
X151060450Y-98733689D01*
X151049543Y-98733686D01*
X150955056Y-98733380D01*
X150868331Y-98732616D01*
X150791837Y-98731451D01*
X150728043Y-98729942D01*
X150679418Y-98728147D01*
X150648433Y-98726121D01*
X150637556Y-98723922D01*
X150637578Y-98723463D01*
X150644614Y-98707910D01*
X150660434Y-98685071D01*
X150664734Y-98679638D01*
X150675777Y-98665606D01*
X150685311Y-98652186D01*
X150693461Y-98637722D01*
X150700352Y-98620556D01*
X150706111Y-98599034D01*
X150710862Y-98571498D01*
X150714731Y-98536292D01*
X150717844Y-98491760D01*
X150720325Y-98436246D01*
X150722300Y-98368093D01*
X150723894Y-98285645D01*
X150725234Y-98187246D01*
X150726444Y-98071239D01*
X150727649Y-97935968D01*
X150728595Y-97824586D01*
X151529378Y-97824586D01*
X151529378Y-98020462D01*
X151574048Y-98076973D01*
X151586785Y-98092212D01*
X151633604Y-98134844D01*
X151694255Y-98170672D01*
X151704897Y-98175850D01*
X151743676Y-98192745D01*
X151778692Y-98202909D01*
X151818722Y-98208325D01*
X151872541Y-98210978D01*
X151890648Y-98211383D01*
X151966011Y-98208540D01*
X152026743Y-98196620D01*
X152078452Y-98174037D01*
X152126746Y-98139211D01*
X152131803Y-98134798D01*
X152180272Y-98079160D01*
X152208459Y-98015333D01*
X152217752Y-97940282D01*
X152210520Y-97868693D01*
X152185796Y-97805645D01*
X152141249Y-97747758D01*
X152086319Y-97700808D01*
X152013894Y-97660961D01*
X151927340Y-97633263D01*
X151824670Y-97617096D01*
X151703894Y-97611842D01*
X151695007Y-97611857D01*
X151639660Y-97612655D01*
X151592736Y-97614488D01*
X151558953Y-97617111D01*
X151543028Y-97620274D01*
X151538943Y-97626741D01*
X151534572Y-97648875D01*
X151531604Y-97687988D01*
X151529914Y-97745939D01*
X151529378Y-97824586D01*
X150728595Y-97824586D01*
X150728975Y-97779778D01*
X150730228Y-97637012D01*
X150731651Y-97491942D01*
X150733176Y-97366027D01*
X150734933Y-97257436D01*
X150737051Y-97164334D01*
X150739660Y-97084891D01*
X150742890Y-97017273D01*
X150746869Y-96959649D01*
X150751728Y-96910185D01*
X150757597Y-96867050D01*
X150764604Y-96828410D01*
X150772880Y-96792434D01*
X150782554Y-96757289D01*
X150793756Y-96721142D01*
X150806616Y-96682161D01*
X150822090Y-96639091D01*
X150864994Y-96546871D01*
X150918735Y-96467099D01*
X150987576Y-96392965D01*
X151065185Y-96329405D01*
X151169761Y-96267725D01*
X151289244Y-96220202D01*
X151424508Y-96186567D01*
X151576426Y-96166552D01*
X151745872Y-96159889D01*
X151803890Y-96160287D01*
X151869398Y-96162335D01*
X151930693Y-96166704D01*
X151992097Y-96174035D01*
X152057932Y-96184969D01*
X152132520Y-96200147D01*
X152220184Y-96220209D01*
X152325245Y-96245797D01*
X152353806Y-96252820D01*
X152429054Y-96270776D01*
X152499388Y-96286820D01*
X152560567Y-96300028D01*
X152608354Y-96309474D01*
X152638511Y-96314231D01*
X152666783Y-96317910D01*
X152693060Y-96323187D01*
X152703059Y-96327942D01*
X152699952Y-96336781D01*
X152689194Y-96364072D01*
X152671864Y-96406906D01*
X152649126Y-96462425D01*
X152622147Y-96527772D01*
X152592090Y-96600089D01*
X152585493Y-96615879D01*
X152546907Y-96706484D01*
X152515768Y-96776217D01*
X152491917Y-96825405D01*
X152475198Y-96854374D01*
X152465454Y-96863452D01*
X152457766Y-96861405D01*
X152431415Y-96851760D01*
X152392982Y-96836190D01*
X152347822Y-96816815D01*
X152253293Y-96778814D01*
X152116480Y-96737780D01*
X151975289Y-96712612D01*
X151937314Y-96708611D01*
X151834059Y-96706447D01*
X151746952Y-96719622D01*
X151675129Y-96748756D01*
X151617731Y-96794466D01*
X151573896Y-96857372D01*
X151542762Y-96938092D01*
X151523470Y-97037245D01*
X151516050Y-97096224D01*
X151677936Y-97089445D01*
X151804495Y-97087813D01*
X151955951Y-97094194D01*
X152104396Y-97108777D01*
X152240578Y-97130882D01*
X152305245Y-97145821D01*
X152437490Y-97188741D01*
X152559762Y-97245340D01*
X152669685Y-97314017D01*
X152764883Y-97393170D01*
X152842980Y-97481196D01*
X152901599Y-97576493D01*
X152925595Y-97628864D01*
X152951232Y-97699590D01*
X152967478Y-97770812D01*
X152975822Y-97849712D01*
X152977690Y-97940282D01*
X152977755Y-97943467D01*
G36*
X152977755Y-97943467D02*
G01*
X152977261Y-97977363D01*
X152973632Y-98052202D01*
X152966022Y-98114401D01*
X152953688Y-98170984D01*
X152909313Y-98297076D01*
X152846400Y-98411679D01*
X152766238Y-98512568D01*
X152669740Y-98598924D01*
X152557822Y-98669932D01*
X152431397Y-98724776D01*
X152291378Y-98762638D01*
X152255149Y-98768351D01*
X152176155Y-98774313D01*
X152087841Y-98774646D01*
X151998075Y-98769659D01*
X151914722Y-98759666D01*
X151845651Y-98744978D01*
X151759187Y-98714749D01*
X151649286Y-98660057D01*
X151551956Y-98592543D01*
X151489867Y-98541556D01*
X151486605Y-98637622D01*
X151483343Y-98733689D01*
X151060450Y-98733689D01*
X151049543Y-98733686D01*
X150955056Y-98733380D01*
X150868331Y-98732616D01*
X150791837Y-98731451D01*
X150728043Y-98729942D01*
X150679418Y-98728147D01*
X150648433Y-98726121D01*
X150637556Y-98723922D01*
X150637578Y-98723463D01*
X150644614Y-98707910D01*
X150660434Y-98685071D01*
X150664734Y-98679638D01*
X150675777Y-98665606D01*
X150685311Y-98652186D01*
X150693461Y-98637722D01*
X150700352Y-98620556D01*
X150706111Y-98599034D01*
X150710862Y-98571498D01*
X150714731Y-98536292D01*
X150717844Y-98491760D01*
X150720325Y-98436246D01*
X150722300Y-98368093D01*
X150723894Y-98285645D01*
X150725234Y-98187246D01*
X150726444Y-98071239D01*
X150727649Y-97935968D01*
X150728595Y-97824586D01*
X151529378Y-97824586D01*
X151529378Y-98020462D01*
X151574048Y-98076973D01*
X151586785Y-98092212D01*
X151633604Y-98134844D01*
X151694255Y-98170672D01*
X151704897Y-98175850D01*
X151743676Y-98192745D01*
X151778692Y-98202909D01*
X151818722Y-98208325D01*
X151872541Y-98210978D01*
X151890648Y-98211383D01*
X151966011Y-98208540D01*
X152026743Y-98196620D01*
X152078452Y-98174037D01*
X152126746Y-98139211D01*
X152131803Y-98134798D01*
X152180272Y-98079160D01*
X152208459Y-98015333D01*
X152217752Y-97940282D01*
X152210520Y-97868693D01*
X152185796Y-97805645D01*
X152141249Y-97747758D01*
X152086319Y-97700808D01*
X152013894Y-97660961D01*
X151927340Y-97633263D01*
X151824670Y-97617096D01*
X151703894Y-97611842D01*
X151695007Y-97611857D01*
X151639660Y-97612655D01*
X151592736Y-97614488D01*
X151558953Y-97617111D01*
X151543028Y-97620274D01*
X151538943Y-97626741D01*
X151534572Y-97648875D01*
X151531604Y-97687988D01*
X151529914Y-97745939D01*
X151529378Y-97824586D01*
X150728595Y-97824586D01*
X150728975Y-97779778D01*
X150730228Y-97637012D01*
X150731651Y-97491942D01*
X150733176Y-97366027D01*
X150734933Y-97257436D01*
X150737051Y-97164334D01*
X150739660Y-97084891D01*
X150742890Y-97017273D01*
X150746869Y-96959649D01*
X150751728Y-96910185D01*
X150757597Y-96867050D01*
X150764604Y-96828410D01*
X150772880Y-96792434D01*
X150782554Y-96757289D01*
X150793756Y-96721142D01*
X150806616Y-96682161D01*
X150822090Y-96639091D01*
X150864994Y-96546871D01*
X150918735Y-96467099D01*
X150987576Y-96392965D01*
X151065185Y-96329405D01*
X151169761Y-96267725D01*
X151289244Y-96220202D01*
X151424508Y-96186567D01*
X151576426Y-96166552D01*
X151745872Y-96159889D01*
X151803890Y-96160287D01*
X151869398Y-96162335D01*
X151930693Y-96166704D01*
X151992097Y-96174035D01*
X152057932Y-96184969D01*
X152132520Y-96200147D01*
X152220184Y-96220209D01*
X152325245Y-96245797D01*
X152353806Y-96252820D01*
X152429054Y-96270776D01*
X152499388Y-96286820D01*
X152560567Y-96300028D01*
X152608354Y-96309474D01*
X152638511Y-96314231D01*
X152666783Y-96317910D01*
X152693060Y-96323187D01*
X152703059Y-96327942D01*
X152699952Y-96336781D01*
X152689194Y-96364072D01*
X152671864Y-96406906D01*
X152649126Y-96462425D01*
X152622147Y-96527772D01*
X152592090Y-96600089D01*
X152585493Y-96615879D01*
X152546907Y-96706484D01*
X152515768Y-96776217D01*
X152491917Y-96825405D01*
X152475198Y-96854374D01*
X152465454Y-96863452D01*
X152457766Y-96861405D01*
X152431415Y-96851760D01*
X152392982Y-96836190D01*
X152347822Y-96816815D01*
X152253293Y-96778814D01*
X152116480Y-96737780D01*
X151975289Y-96712612D01*
X151937314Y-96708611D01*
X151834059Y-96706447D01*
X151746952Y-96719622D01*
X151675129Y-96748756D01*
X151617731Y-96794466D01*
X151573896Y-96857372D01*
X151542762Y-96938092D01*
X151523470Y-97037245D01*
X151516050Y-97096224D01*
X151677936Y-97089445D01*
X151804495Y-97087813D01*
X151955951Y-97094194D01*
X152104396Y-97108777D01*
X152240578Y-97130882D01*
X152305245Y-97145821D01*
X152437490Y-97188741D01*
X152559762Y-97245340D01*
X152669685Y-97314017D01*
X152764883Y-97393170D01*
X152842980Y-97481196D01*
X152901599Y-97576493D01*
X152925595Y-97628864D01*
X152951232Y-97699590D01*
X152967478Y-97770812D01*
X152975822Y-97849712D01*
X152977690Y-97940282D01*
X152977755Y-97943467D01*
G37*
X160525614Y-95411792D02*
X160526059Y-95543011D01*
X160526362Y-95690216D01*
X160526548Y-95854349D01*
X160526642Y-96036352D01*
X160526671Y-96237165D01*
X160526661Y-96457732D01*
X160526636Y-96698992D01*
X160526622Y-96961889D01*
X160526622Y-97004040D01*
X160526646Y-97264668D01*
X160526685Y-97503796D01*
X160526708Y-97722360D01*
X160526687Y-97921295D01*
X160526593Y-98101535D01*
X160526395Y-98264015D01*
X160526063Y-98409670D01*
X160525569Y-98539434D01*
X160524883Y-98654243D01*
X160523976Y-98755030D01*
X160522817Y-98842730D01*
X160521378Y-98918279D01*
X160519629Y-98982611D01*
X160517540Y-99036661D01*
X160515083Y-99081363D01*
X160512227Y-99117652D01*
X160508943Y-99146463D01*
X160505202Y-99168731D01*
X160500974Y-99185390D01*
X160496229Y-99197375D01*
X160490939Y-99205621D01*
X160485073Y-99211062D01*
X160478602Y-99214634D01*
X160471497Y-99217270D01*
X160463728Y-99219906D01*
X160455266Y-99223477D01*
X160450908Y-99225145D01*
X160442395Y-99227111D01*
X160429694Y-99228911D01*
X160411885Y-99230555D01*
X160388049Y-99232047D01*
X160357266Y-99233397D01*
X160318617Y-99234611D01*
X160271182Y-99235697D01*
X160214043Y-99236661D01*
X160146279Y-99237511D01*
X160066971Y-99238253D01*
X159975199Y-99238897D01*
X159870044Y-99239447D01*
X159750587Y-99239913D01*
X159615908Y-99240300D01*
X159465088Y-99240616D01*
X159297206Y-99240869D01*
X159111345Y-99241066D01*
X158906583Y-99241213D01*
X158682002Y-99241318D01*
X158436682Y-99241389D01*
X158169704Y-99241432D01*
X158131321Y-99241437D01*
X157865922Y-99241480D01*
X157622050Y-99241525D01*
X157398783Y-99241548D01*
X157195196Y-99241524D01*
X157010367Y-99241430D01*
X156843373Y-99241243D01*
X156693290Y-99240939D01*
X156559196Y-99240494D01*
X156440166Y-99239885D01*
X156335279Y-99239089D01*
X156243610Y-99238080D01*
X156164237Y-99236837D01*
X156096237Y-99235335D01*
X156038686Y-99233551D01*
X155990662Y-99231461D01*
X155951240Y-99229042D01*
X155919499Y-99226270D01*
X155894514Y-99223121D01*
X155875364Y-99219572D01*
X155861123Y-99215598D01*
X155850871Y-99211178D01*
X155843682Y-99206286D01*
X155838635Y-99200900D01*
X155834805Y-99194996D01*
X155831271Y-99188549D01*
X155827108Y-99181537D01*
X155826025Y-99179687D01*
X155823813Y-99174180D01*
X155821786Y-99165868D01*
X155819938Y-99153809D01*
X155818261Y-99137063D01*
X155816745Y-99114687D01*
X155815383Y-99085740D01*
X155814167Y-99049280D01*
X155813089Y-99004367D01*
X155812140Y-98950057D01*
X155811312Y-98885410D01*
X155810597Y-98809484D01*
X155809987Y-98721338D01*
X155809942Y-98712493D01*
X156101378Y-98712493D01*
X156105260Y-98713765D01*
X156128520Y-98715791D01*
X156170874Y-98717626D01*
X156230132Y-98719227D01*
X156304107Y-98720549D01*
X156390610Y-98721548D01*
X156487452Y-98722180D01*
X156592445Y-98722400D01*
X157290651Y-98722400D01*
X158445090Y-98722400D01*
X158444456Y-98646200D01*
X158445574Y-98604160D01*
X158451304Y-98568334D01*
X158463890Y-98530772D01*
X158485568Y-98482577D01*
X158488789Y-98475897D01*
X158514188Y-98426359D01*
X158540996Y-98378369D01*
X158563917Y-98341466D01*
X158568485Y-98334834D01*
X158590516Y-98303593D01*
X158622693Y-98258654D01*
X158663457Y-98202147D01*
X158711245Y-98136204D01*
X158764498Y-98062957D01*
X158821655Y-97984536D01*
X158881155Y-97903072D01*
X158941437Y-97820698D01*
X159000940Y-97739544D01*
X159058105Y-97661742D01*
X159111370Y-97589423D01*
X159159174Y-97524718D01*
X159199957Y-97469759D01*
X159232158Y-97426676D01*
X159254216Y-97397602D01*
X159264571Y-97384667D01*
X159269044Y-97380351D01*
X159273236Y-97378312D01*
X159276643Y-97380926D01*
X159279325Y-97389986D01*
X159281341Y-97407285D01*
X159282748Y-97434614D01*
X159283605Y-97473765D01*
X159283970Y-97526533D01*
X159283903Y-97594707D01*
X159283460Y-97680082D01*
X159282702Y-97784449D01*
X159281685Y-97909600D01*
X159281308Y-97954300D01*
X159280169Y-98075395D01*
X159278972Y-98176688D01*
X159277636Y-98260262D01*
X159276077Y-98328204D01*
X159274215Y-98382599D01*
X159271966Y-98425532D01*
X159269248Y-98459089D01*
X159265979Y-98485355D01*
X159262078Y-98506416D01*
X159257461Y-98524357D01*
X159249192Y-98550770D01*
X159225583Y-98612772D01*
X159199685Y-98665573D01*
X159174535Y-98702645D01*
X159173339Y-98704075D01*
X159171168Y-98708424D01*
X159173328Y-98712026D01*
X159181644Y-98714951D01*
X159197940Y-98717269D01*
X159224041Y-98719051D01*
X159261771Y-98720367D01*
X159312956Y-98721286D01*
X159379420Y-98721878D01*
X159462987Y-98722215D01*
X159565483Y-98722365D01*
X159688732Y-98722400D01*
X160220296Y-98722400D01*
X160181523Y-98664783D01*
X160175432Y-98655893D01*
X160164976Y-98641069D01*
X160155579Y-98627422D01*
X160147183Y-98613765D01*
X160139733Y-98598911D01*
X160133173Y-98581670D01*
X160127446Y-98560855D01*
X160122495Y-98535280D01*
X160118266Y-98503755D01*
X160114701Y-98465093D01*
X160111744Y-98418107D01*
X160109340Y-98361608D01*
X160107431Y-98294409D01*
X160105962Y-98215322D01*
X160104876Y-98123160D01*
X160104118Y-98016734D01*
X160103630Y-97894857D01*
X160103358Y-97756341D01*
X160103243Y-97599999D01*
X160103231Y-97424642D01*
X160103265Y-97229082D01*
X160103289Y-97012133D01*
X160103280Y-96889513D01*
X160103243Y-96684447D01*
X160103227Y-96500116D01*
X160103288Y-96335334D01*
X160103484Y-96188916D01*
X160103870Y-96059674D01*
X160104505Y-95946422D01*
X160105444Y-95847975D01*
X160106745Y-95763144D01*
X160108464Y-95690744D01*
X160110659Y-95629589D01*
X160113385Y-95578492D01*
X160116701Y-95536267D01*
X160120662Y-95501727D01*
X160125325Y-95473686D01*
X160130747Y-95450958D01*
X160136986Y-95432356D01*
X160144097Y-95416693D01*
X160152138Y-95402784D01*
X160161166Y-95389441D01*
X160171236Y-95375479D01*
X160182407Y-95359711D01*
X160222197Y-95301867D01*
X159162314Y-95301867D01*
X159200311Y-95364966D01*
X159214993Y-95390005D01*
X159229531Y-95417586D01*
X159241627Y-95445700D01*
X159251532Y-95476551D01*
X159259494Y-95512344D01*
X159265761Y-95555283D01*
X159270582Y-95607574D01*
X159274206Y-95671419D01*
X159276881Y-95749025D01*
X159278857Y-95842594D01*
X159280382Y-95954333D01*
X159281704Y-96086445D01*
X159282613Y-96206434D01*
X159283020Y-96323063D01*
X159282767Y-96418531D01*
X159281857Y-96492556D01*
X159280293Y-96544855D01*
X159278079Y-96575149D01*
X159275220Y-96583156D01*
X159272161Y-96579858D01*
X159254006Y-96558408D01*
X159224275Y-96521889D01*
X159184639Y-96472442D01*
X159136771Y-96412207D01*
X159082343Y-96343327D01*
X159023027Y-96267943D01*
X158960495Y-96188196D01*
X158896421Y-96106228D01*
X158832475Y-96024180D01*
X158770331Y-95944194D01*
X158711661Y-95868411D01*
X158658137Y-95798973D01*
X158611430Y-95738021D01*
X158573214Y-95687696D01*
X158545161Y-95650140D01*
X158528943Y-95627495D01*
X158483635Y-95555212D01*
X158443661Y-95475463D01*
X158422130Y-95407188D01*
X158418827Y-95349844D01*
X158424116Y-95301867D01*
X157292356Y-95302117D01*
X157331867Y-95332722D01*
X157341248Y-95340089D01*
X157404183Y-95394438D01*
X157472997Y-95462259D01*
X157549596Y-95545516D01*
X157635888Y-95646178D01*
X157653052Y-95666847D01*
X157693833Y-95716409D01*
X157743588Y-95777326D01*
X157800955Y-95847898D01*
X157864569Y-95926424D01*
X157933069Y-96011204D01*
X158005090Y-96100537D01*
X158079270Y-96192722D01*
X158094517Y-96211702D01*
X158154246Y-96286060D01*
X158228653Y-96378848D01*
X158301131Y-96469388D01*
X158370314Y-96555978D01*
X158434841Y-96636918D01*
X158493347Y-96710506D01*
X158544470Y-96775044D01*
X158586847Y-96828829D01*
X158619115Y-96870162D01*
X158639910Y-96897342D01*
X158647869Y-96908668D01*
X158646111Y-96912771D01*
X158633230Y-96933334D01*
X158608885Y-96969561D01*
X158574247Y-97019824D01*
X158530486Y-97082492D01*
X158478775Y-97155936D01*
X158420284Y-97238527D01*
X158356184Y-97328636D01*
X158287646Y-97424631D01*
X158215843Y-97524885D01*
X158141944Y-97627768D01*
X158067121Y-97731650D01*
X157992545Y-97834901D01*
X157919387Y-97935892D01*
X157848819Y-98032994D01*
X157782011Y-98124577D01*
X157720135Y-98209011D01*
X157664361Y-98284667D01*
X157615862Y-98349916D01*
X157575807Y-98403128D01*
X157545369Y-98442673D01*
X157524944Y-98468026D01*
X157478899Y-98522295D01*
X157428612Y-98578775D01*
X157381815Y-98628669D01*
X157290651Y-98722400D01*
X156592445Y-98722400D01*
X156661356Y-98722349D01*
X156759607Y-98722091D01*
X156849030Y-98721637D01*
X156927333Y-98721010D01*
X156992223Y-98720235D01*
X157041411Y-98719335D01*
X157072604Y-98718334D01*
X157083511Y-98717257D01*
X157082322Y-98714037D01*
X157072176Y-98696452D01*
X157055040Y-98670158D01*
X157046540Y-98657691D01*
X157037329Y-98643622D01*
X157029233Y-98629351D01*
X157022185Y-98613479D01*
X157016117Y-98594609D01*
X157010961Y-98571341D01*
X157006651Y-98542278D01*
X157003119Y-98506021D01*
X157000297Y-98461170D01*
X156998118Y-98406328D01*
X156996514Y-98340097D01*
X156995419Y-98261077D01*
X156994765Y-98167871D01*
X156994484Y-98059079D01*
X156994509Y-97933303D01*
X156994772Y-97789145D01*
X156995206Y-97625207D01*
X156995745Y-97440089D01*
X156996279Y-97261232D01*
X156996805Y-97102374D01*
X156997350Y-96963316D01*
X156997945Y-96842665D01*
X156998619Y-96739028D01*
X156999403Y-96651011D01*
X157000326Y-96577223D01*
X157001419Y-96516269D01*
X157002712Y-96466757D01*
X157004235Y-96427293D01*
X157006019Y-96396484D01*
X157008092Y-96372938D01*
X157010486Y-96355260D01*
X157013230Y-96342059D01*
X157016356Y-96331940D01*
X157019892Y-96323511D01*
X157023791Y-96315375D01*
X157043438Y-96278544D01*
X157062225Y-96248391D01*
X157063272Y-96246908D01*
X157077602Y-96224659D01*
X157083511Y-96211702D01*
X157082504Y-96211249D01*
X157065305Y-96209803D01*
X157028656Y-96208480D01*
X156974962Y-96207316D01*
X156906630Y-96206347D01*
X156826064Y-96205611D01*
X156735670Y-96205142D01*
X156637853Y-96204978D01*
X156192195Y-96204978D01*
X156189120Y-97381845D01*
X156186045Y-98558711D01*
X156159407Y-98617622D01*
X156147485Y-98642183D01*
X156130246Y-98672434D01*
X156117074Y-98689560D01*
X156109076Y-98697591D01*
X156101378Y-98712493D01*
X155809942Y-98712493D01*
X155809474Y-98620029D01*
X155809050Y-98504617D01*
X155808706Y-98374160D01*
X155808434Y-98227716D01*
X155808227Y-98064344D01*
X155808076Y-97883101D01*
X155807972Y-97683048D01*
X155807908Y-97463241D01*
X155807876Y-97222739D01*
X155807867Y-96960602D01*
X155807867Y-94769031D01*
X155846249Y-94730649D01*
X155873355Y-94706911D01*
X155900253Y-94695111D01*
X155936560Y-94692267D01*
X155988489Y-94692267D01*
X155988489Y-94780206D01*
X155990427Y-94830102D01*
X156009199Y-94940523D01*
X156046217Y-95041987D01*
X156099369Y-95133152D01*
X156166546Y-95212673D01*
X156245638Y-95279205D01*
X156334534Y-95331406D01*
X156431125Y-95367930D01*
X156533300Y-95387434D01*
X156638950Y-95388573D01*
X156745964Y-95370005D01*
X156852232Y-95330384D01*
X156949219Y-95272516D01*
X157034293Y-95197684D01*
X157103015Y-95109615D01*
X157153918Y-95010616D01*
X157185535Y-94902993D01*
X157196400Y-94789054D01*
X157196400Y-94692267D01*
X158816753Y-94692267D01*
X159027897Y-94692280D01*
X159232020Y-94692330D01*
X159415686Y-94692430D01*
X159579991Y-94692592D01*
X159726029Y-94692829D01*
X159854894Y-94693153D01*
X159967683Y-94693575D01*
X160065488Y-94694109D01*
X160149404Y-94694767D01*
X160220527Y-94695561D01*
X160279950Y-94696504D01*
X160328768Y-94697608D01*
X160368077Y-94698884D01*
X160398969Y-94700347D01*
X160422541Y-94702007D01*
X160439886Y-94703878D01*
X160452099Y-94705972D01*
X160460275Y-94708300D01*
X160465508Y-94710876D01*
X160471504Y-94714445D01*
X160478279Y-94717978D01*
X160484478Y-94721488D01*
X160490126Y-94725918D01*
X160495247Y-94732208D01*
X160499869Y-94741301D01*
X160504015Y-94754139D01*
X160507713Y-94771662D01*
X160510987Y-94794813D01*
X160513863Y-94824534D01*
X160516367Y-94861765D01*
X160518524Y-94907449D01*
X160520360Y-94962527D01*
X160521900Y-95027941D01*
X160523170Y-95104633D01*
X160524195Y-95193544D01*
X160525001Y-95295617D01*
X160525034Y-95301867D01*
X160525614Y-95411792D01*
G36*
X160525614Y-95411792D02*
G01*
X160526059Y-95543011D01*
X160526362Y-95690216D01*
X160526548Y-95854349D01*
X160526642Y-96036352D01*
X160526671Y-96237165D01*
X160526661Y-96457732D01*
X160526636Y-96698992D01*
X160526622Y-96961889D01*
X160526622Y-97004040D01*
X160526646Y-97264668D01*
X160526685Y-97503796D01*
X160526708Y-97722360D01*
X160526687Y-97921295D01*
X160526593Y-98101535D01*
X160526395Y-98264015D01*
X160526063Y-98409670D01*
X160525569Y-98539434D01*
X160524883Y-98654243D01*
X160523976Y-98755030D01*
X160522817Y-98842730D01*
X160521378Y-98918279D01*
X160519629Y-98982611D01*
X160517540Y-99036661D01*
X160515083Y-99081363D01*
X160512227Y-99117652D01*
X160508943Y-99146463D01*
X160505202Y-99168731D01*
X160500974Y-99185390D01*
X160496229Y-99197375D01*
X160490939Y-99205621D01*
X160485073Y-99211062D01*
X160478602Y-99214634D01*
X160471497Y-99217270D01*
X160463728Y-99219906D01*
X160455266Y-99223477D01*
X160450908Y-99225145D01*
X160442395Y-99227111D01*
X160429694Y-99228911D01*
X160411885Y-99230555D01*
X160388049Y-99232047D01*
X160357266Y-99233397D01*
X160318617Y-99234611D01*
X160271182Y-99235697D01*
X160214043Y-99236661D01*
X160146279Y-99237511D01*
X160066971Y-99238253D01*
X159975199Y-99238897D01*
X159870044Y-99239447D01*
X159750587Y-99239913D01*
X159615908Y-99240300D01*
X159465088Y-99240616D01*
X159297206Y-99240869D01*
X159111345Y-99241066D01*
X158906583Y-99241213D01*
X158682002Y-99241318D01*
X158436682Y-99241389D01*
X158169704Y-99241432D01*
X158131321Y-99241437D01*
X157865922Y-99241480D01*
X157622050Y-99241525D01*
X157398783Y-99241548D01*
X157195196Y-99241524D01*
X157010367Y-99241430D01*
X156843373Y-99241243D01*
X156693290Y-99240939D01*
X156559196Y-99240494D01*
X156440166Y-99239885D01*
X156335279Y-99239089D01*
X156243610Y-99238080D01*
X156164237Y-99236837D01*
X156096237Y-99235335D01*
X156038686Y-99233551D01*
X155990662Y-99231461D01*
X155951240Y-99229042D01*
X155919499Y-99226270D01*
X155894514Y-99223121D01*
X155875364Y-99219572D01*
X155861123Y-99215598D01*
X155850871Y-99211178D01*
X155843682Y-99206286D01*
X155838635Y-99200900D01*
X155834805Y-99194996D01*
X155831271Y-99188549D01*
X155827108Y-99181537D01*
X155826025Y-99179687D01*
X155823813Y-99174180D01*
X155821786Y-99165868D01*
X155819938Y-99153809D01*
X155818261Y-99137063D01*
X155816745Y-99114687D01*
X155815383Y-99085740D01*
X155814167Y-99049280D01*
X155813089Y-99004367D01*
X155812140Y-98950057D01*
X155811312Y-98885410D01*
X155810597Y-98809484D01*
X155809987Y-98721338D01*
X155809942Y-98712493D01*
X156101378Y-98712493D01*
X156105260Y-98713765D01*
X156128520Y-98715791D01*
X156170874Y-98717626D01*
X156230132Y-98719227D01*
X156304107Y-98720549D01*
X156390610Y-98721548D01*
X156487452Y-98722180D01*
X156592445Y-98722400D01*
X157290651Y-98722400D01*
X158445090Y-98722400D01*
X158444456Y-98646200D01*
X158445574Y-98604160D01*
X158451304Y-98568334D01*
X158463890Y-98530772D01*
X158485568Y-98482577D01*
X158488789Y-98475897D01*
X158514188Y-98426359D01*
X158540996Y-98378369D01*
X158563917Y-98341466D01*
X158568485Y-98334834D01*
X158590516Y-98303593D01*
X158622693Y-98258654D01*
X158663457Y-98202147D01*
X158711245Y-98136204D01*
X158764498Y-98062957D01*
X158821655Y-97984536D01*
X158881155Y-97903072D01*
X158941437Y-97820698D01*
X159000940Y-97739544D01*
X159058105Y-97661742D01*
X159111370Y-97589423D01*
X159159174Y-97524718D01*
X159199957Y-97469759D01*
X159232158Y-97426676D01*
X159254216Y-97397602D01*
X159264571Y-97384667D01*
X159269044Y-97380351D01*
X159273236Y-97378312D01*
X159276643Y-97380926D01*
X159279325Y-97389986D01*
X159281341Y-97407285D01*
X159282748Y-97434614D01*
X159283605Y-97473765D01*
X159283970Y-97526533D01*
X159283903Y-97594707D01*
X159283460Y-97680082D01*
X159282702Y-97784449D01*
X159281685Y-97909600D01*
X159281308Y-97954300D01*
X159280169Y-98075395D01*
X159278972Y-98176688D01*
X159277636Y-98260262D01*
X159276077Y-98328204D01*
X159274215Y-98382599D01*
X159271966Y-98425532D01*
X159269248Y-98459089D01*
X159265979Y-98485355D01*
X159262078Y-98506416D01*
X159257461Y-98524357D01*
X159249192Y-98550770D01*
X159225583Y-98612772D01*
X159199685Y-98665573D01*
X159174535Y-98702645D01*
X159173339Y-98704075D01*
X159171168Y-98708424D01*
X159173328Y-98712026D01*
X159181644Y-98714951D01*
X159197940Y-98717269D01*
X159224041Y-98719051D01*
X159261771Y-98720367D01*
X159312956Y-98721286D01*
X159379420Y-98721878D01*
X159462987Y-98722215D01*
X159565483Y-98722365D01*
X159688732Y-98722400D01*
X160220296Y-98722400D01*
X160181523Y-98664783D01*
X160175432Y-98655893D01*
X160164976Y-98641069D01*
X160155579Y-98627422D01*
X160147183Y-98613765D01*
X160139733Y-98598911D01*
X160133173Y-98581670D01*
X160127446Y-98560855D01*
X160122495Y-98535280D01*
X160118266Y-98503755D01*
X160114701Y-98465093D01*
X160111744Y-98418107D01*
X160109340Y-98361608D01*
X160107431Y-98294409D01*
X160105962Y-98215322D01*
X160104876Y-98123160D01*
X160104118Y-98016734D01*
X160103630Y-97894857D01*
X160103358Y-97756341D01*
X160103243Y-97599999D01*
X160103231Y-97424642D01*
X160103265Y-97229082D01*
X160103289Y-97012133D01*
X160103280Y-96889513D01*
X160103243Y-96684447D01*
X160103227Y-96500116D01*
X160103288Y-96335334D01*
X160103484Y-96188916D01*
X160103870Y-96059674D01*
X160104505Y-95946422D01*
X160105444Y-95847975D01*
X160106745Y-95763144D01*
X160108464Y-95690744D01*
X160110659Y-95629589D01*
X160113385Y-95578492D01*
X160116701Y-95536267D01*
X160120662Y-95501727D01*
X160125325Y-95473686D01*
X160130747Y-95450958D01*
X160136986Y-95432356D01*
X160144097Y-95416693D01*
X160152138Y-95402784D01*
X160161166Y-95389441D01*
X160171236Y-95375479D01*
X160182407Y-95359711D01*
X160222197Y-95301867D01*
X159162314Y-95301867D01*
X159200311Y-95364966D01*
X159214993Y-95390005D01*
X159229531Y-95417586D01*
X159241627Y-95445700D01*
X159251532Y-95476551D01*
X159259494Y-95512344D01*
X159265761Y-95555283D01*
X159270582Y-95607574D01*
X159274206Y-95671419D01*
X159276881Y-95749025D01*
X159278857Y-95842594D01*
X159280382Y-95954333D01*
X159281704Y-96086445D01*
X159282613Y-96206434D01*
X159283020Y-96323063D01*
X159282767Y-96418531D01*
X159281857Y-96492556D01*
X159280293Y-96544855D01*
X159278079Y-96575149D01*
X159275220Y-96583156D01*
X159272161Y-96579858D01*
X159254006Y-96558408D01*
X159224275Y-96521889D01*
X159184639Y-96472442D01*
X159136771Y-96412207D01*
X159082343Y-96343327D01*
X159023027Y-96267943D01*
X158960495Y-96188196D01*
X158896421Y-96106228D01*
X158832475Y-96024180D01*
X158770331Y-95944194D01*
X158711661Y-95868411D01*
X158658137Y-95798973D01*
X158611430Y-95738021D01*
X158573214Y-95687696D01*
X158545161Y-95650140D01*
X158528943Y-95627495D01*
X158483635Y-95555212D01*
X158443661Y-95475463D01*
X158422130Y-95407188D01*
X158418827Y-95349844D01*
X158424116Y-95301867D01*
X157292356Y-95302117D01*
X157331867Y-95332722D01*
X157341248Y-95340089D01*
X157404183Y-95394438D01*
X157472997Y-95462259D01*
X157549596Y-95545516D01*
X157635888Y-95646178D01*
X157653052Y-95666847D01*
X157693833Y-95716409D01*
X157743588Y-95777326D01*
X157800955Y-95847898D01*
X157864569Y-95926424D01*
X157933069Y-96011204D01*
X158005090Y-96100537D01*
X158079270Y-96192722D01*
X158094517Y-96211702D01*
X158154246Y-96286060D01*
X158228653Y-96378848D01*
X158301131Y-96469388D01*
X158370314Y-96555978D01*
X158434841Y-96636918D01*
X158493347Y-96710506D01*
X158544470Y-96775044D01*
X158586847Y-96828829D01*
X158619115Y-96870162D01*
X158639910Y-96897342D01*
X158647869Y-96908668D01*
X158646111Y-96912771D01*
X158633230Y-96933334D01*
X158608885Y-96969561D01*
X158574247Y-97019824D01*
X158530486Y-97082492D01*
X158478775Y-97155936D01*
X158420284Y-97238527D01*
X158356184Y-97328636D01*
X158287646Y-97424631D01*
X158215843Y-97524885D01*
X158141944Y-97627768D01*
X158067121Y-97731650D01*
X157992545Y-97834901D01*
X157919387Y-97935892D01*
X157848819Y-98032994D01*
X157782011Y-98124577D01*
X157720135Y-98209011D01*
X157664361Y-98284667D01*
X157615862Y-98349916D01*
X157575807Y-98403128D01*
X157545369Y-98442673D01*
X157524944Y-98468026D01*
X157478899Y-98522295D01*
X157428612Y-98578775D01*
X157381815Y-98628669D01*
X157290651Y-98722400D01*
X156592445Y-98722400D01*
X156661356Y-98722349D01*
X156759607Y-98722091D01*
X156849030Y-98721637D01*
X156927333Y-98721010D01*
X156992223Y-98720235D01*
X157041411Y-98719335D01*
X157072604Y-98718334D01*
X157083511Y-98717257D01*
X157082322Y-98714037D01*
X157072176Y-98696452D01*
X157055040Y-98670158D01*
X157046540Y-98657691D01*
X157037329Y-98643622D01*
X157029233Y-98629351D01*
X157022185Y-98613479D01*
X157016117Y-98594609D01*
X157010961Y-98571341D01*
X157006651Y-98542278D01*
X157003119Y-98506021D01*
X157000297Y-98461170D01*
X156998118Y-98406328D01*
X156996514Y-98340097D01*
X156995419Y-98261077D01*
X156994765Y-98167871D01*
X156994484Y-98059079D01*
X156994509Y-97933303D01*
X156994772Y-97789145D01*
X156995206Y-97625207D01*
X156995745Y-97440089D01*
X156996279Y-97261232D01*
X156996805Y-97102374D01*
X156997350Y-96963316D01*
X156997945Y-96842665D01*
X156998619Y-96739028D01*
X156999403Y-96651011D01*
X157000326Y-96577223D01*
X157001419Y-96516269D01*
X157002712Y-96466757D01*
X157004235Y-96427293D01*
X157006019Y-96396484D01*
X157008092Y-96372938D01*
X157010486Y-96355260D01*
X157013230Y-96342059D01*
X157016356Y-96331940D01*
X157019892Y-96323511D01*
X157023791Y-96315375D01*
X157043438Y-96278544D01*
X157062225Y-96248391D01*
X157063272Y-96246908D01*
X157077602Y-96224659D01*
X157083511Y-96211702D01*
X157082504Y-96211249D01*
X157065305Y-96209803D01*
X157028656Y-96208480D01*
X156974962Y-96207316D01*
X156906630Y-96206347D01*
X156826064Y-96205611D01*
X156735670Y-96205142D01*
X156637853Y-96204978D01*
X156192195Y-96204978D01*
X156189120Y-97381845D01*
X156186045Y-98558711D01*
X156159407Y-98617622D01*
X156147485Y-98642183D01*
X156130246Y-98672434D01*
X156117074Y-98689560D01*
X156109076Y-98697591D01*
X156101378Y-98712493D01*
X155809942Y-98712493D01*
X155809474Y-98620029D01*
X155809050Y-98504617D01*
X155808706Y-98374160D01*
X155808434Y-98227716D01*
X155808227Y-98064344D01*
X155808076Y-97883101D01*
X155807972Y-97683048D01*
X155807908Y-97463241D01*
X155807876Y-97222739D01*
X155807867Y-96960602D01*
X155807867Y-94769031D01*
X155846249Y-94730649D01*
X155873355Y-94706911D01*
X155900253Y-94695111D01*
X155936560Y-94692267D01*
X155988489Y-94692267D01*
X155988489Y-94780206D01*
X155990427Y-94830102D01*
X156009199Y-94940523D01*
X156046217Y-95041987D01*
X156099369Y-95133152D01*
X156166546Y-95212673D01*
X156245638Y-95279205D01*
X156334534Y-95331406D01*
X156431125Y-95367930D01*
X156533300Y-95387434D01*
X156638950Y-95388573D01*
X156745964Y-95370005D01*
X156852232Y-95330384D01*
X156949219Y-95272516D01*
X157034293Y-95197684D01*
X157103015Y-95109615D01*
X157153918Y-95010616D01*
X157185535Y-94902993D01*
X157196400Y-94789054D01*
X157196400Y-94692267D01*
X158816753Y-94692267D01*
X159027897Y-94692280D01*
X159232020Y-94692330D01*
X159415686Y-94692430D01*
X159579991Y-94692592D01*
X159726029Y-94692829D01*
X159854894Y-94693153D01*
X159967683Y-94693575D01*
X160065488Y-94694109D01*
X160149404Y-94694767D01*
X160220527Y-94695561D01*
X160279950Y-94696504D01*
X160328768Y-94697608D01*
X160368077Y-94698884D01*
X160398969Y-94700347D01*
X160422541Y-94702007D01*
X160439886Y-94703878D01*
X160452099Y-94705972D01*
X160460275Y-94708300D01*
X160465508Y-94710876D01*
X160471504Y-94714445D01*
X160478279Y-94717978D01*
X160484478Y-94721488D01*
X160490126Y-94725918D01*
X160495247Y-94732208D01*
X160499869Y-94741301D01*
X160504015Y-94754139D01*
X160507713Y-94771662D01*
X160510987Y-94794813D01*
X160513863Y-94824534D01*
X160516367Y-94861765D01*
X160518524Y-94907449D01*
X160520360Y-94962527D01*
X160521900Y-95027941D01*
X160523170Y-95104633D01*
X160524195Y-95193544D01*
X160525001Y-95295617D01*
X160525034Y-95301867D01*
X160525614Y-95411792D01*
G37*
%TD*%
M02*
